<?xml version="1.0" encoding="UTF-8" standalone="no"?>
<svg
   viewBox="0 0 64 64"
   version="1.1"
   id="svg12"
   sodipodi:docname="folder-build.svg"
   inkscape:version="1.2.2 (b0a8486541, 2022-12-01)"
   xmlns:inkscape="http://www.inkscape.org/namespaces/inkscape"
   xmlns:sodipodi="http://sodipodi.sourceforge.net/DTD/sodipodi-0.dtd"
   xmlns:xlink="http://www.w3.org/1999/xlink"
   xmlns="http://www.w3.org/2000/svg"
   xmlns:svg="http://www.w3.org/2000/svg"
   xmlns:rdf="http://www.w3.org/1999/02/22-rdf-syntax-ns#"
   xmlns:cc="http://creativecommons.org/ns#"
   xmlns:dc="http://purl.org/dc/elements/1.1/">
  <metadata
     id="metadata16">
    <rdf:RDF>
      <cc:Work
         rdf:about="">
        <dc:format>image/svg+xml</dc:format>
        <dc:type
           rdf:resource="http://purl.org/dc/dcmitype/StillImage" />
      </cc:Work>
    </rdf:RDF>
  </metadata>
  <sodipodi:namedview
     pagecolor="#ffffff"
     bordercolor="#666666"
     borderopacity="1"
     objecttolerance="10"
     gridtolerance="10"
     guidetolerance="10"
     inkscape:pageopacity="0"
     inkscape:pageshadow="2"
     inkscape:window-width="1920"
     inkscape:window-height="994"
     id="namedview14"
     showgrid="false"
     inkscape:zoom="3.6875"
     inkscape:cx="14.779661"
     inkscape:cy="32.135593"
     inkscape:window-x="0"
     inkscape:window-y="0"
     inkscape:window-maximized="1"
     inkscape:current-layer="svg12"
     inkscape:showpageshadow="2"
     inkscape:pagecheckerboard="0"
     inkscape:deskcolor="#d1d1d1" />
  <defs
     id="defs3051">
    <linearGradient
       inkscape:collect="always"
       id="linearGradient835">
      <stop
         style="stop-color:#00a489;stop-opacity:1"
         offset="0"
         id="stop831" />
      <stop
         style="stop-color:#006453;stop-opacity:1"
         offset="1"
         id="stop833" />
    </linearGradient>
    <linearGradient
       inkscape:collect="always"
       id="linearGradient827">
      <stop
         style="stop-color:#004c5a;stop-opacity:1"
         offset="0"
         id="stop823" />
      <stop
         style="stop-color:#00a5be;stop-opacity:1"
         offset="1"
         id="stop825" />
    </linearGradient>
    <style
       type="text/css"
       id="current-color-scheme">
      .ColorScheme-Text {
        color:#31363b;
      }
      .ColorScheme-Background {
        color:#eff0f1;
      }
      .ColorScheme-Highlight {
        color:#3daee9;
      }
      .ColorScheme-ViewText {
        color:#31363b;
      }
      .ColorScheme-ViewBackground {
        color:#fcfcfc;
      }
      .ColorScheme-ViewHover {
        color:#93cee9;
      }
      .ColorScheme-ViewFocus{
        color:#3daee9;
      }
      .ColorScheme-ButtonText {
        color:#31363b;
      }
      .ColorScheme-ButtonBackground {
        color:#eff0f1;
      }
      .ColorScheme-ButtonHover {
        color:#93cee9;
      }
      .ColorScheme-ButtonFocus{
        color:#3daee9;
      }
      </style>
    <linearGradient
       inkscape:collect="always"
       xlink:href="#linearGradient827"
       id="linearGradient829"
       x1="23"
       y1="21"
       x2="48.525425"
       y2="69.694916"
       gradientUnits="userSpaceOnUse" />
    <linearGradient
       inkscape:collect="always"
       xlink:href="#linearGradient835"
       id="linearGradient837"
       x1="4"
       y1="13"
       x2="60"
       y2="13"
       gradientUnits="userSpaceOnUse" />
  </defs>
  <path
     style="fill:url(#linearGradient829);fill-opacity:1;stroke:none"
     d="M 4 6 L 4 11 L 4 20 L 3 20 L 3 21 L 3.0019531 21 C 3.0019031 21.004 3 21.008019 3 21.011719 L 3 57 L 3 58 L 4 58 L 60 58 L 61 58 L 61 57 L 61 21.011719 L 61 21 L 61 16 L 60 16 L 60 11.009766 C 60 11.006766 59.998047 11.004 59.998047 11 L 60 11 L 60 10 L 32 10 L 28 6 L 4 6 z "
     class="ColorScheme-Highlight"
     id="path4" />
  <path
     style="fill-opacity:1;fill-rule:evenodd;fill:url(#linearGradient837)"
     d="M 4 6 L 4 11 L 4 20 L 22 20 L 26 16 L 60 16 L 60 11.009766 C 60 11.006766 59.998047 11.004 59.998047 11 L 60 11 L 60 10 L 32 10 L 28 6 L 4 6 z "
     id="path6" />
  <path
     style="fill:#ffffff;fill-opacity:0.2;fill-rule:evenodd"
     d="M 28 6 L 31 11 L 33 11 L 60 11 L 60 10 L 33 10 L 32 10 L 28 6 z M 26 16 L 22 20 L 3 20 L 3 21 L 23 21 L 26 16 z "
     id="path8" />
  <path
     style="fill-opacity:0.2;fill-rule:evenodd"
     d="M 26 16 L 20 19 L 4 19 L 4 20 L 22 20 L 26 16 z M 3 57 L 3 58 L 4 58 L 60 58 L 61 58 L 61 57 L 60 57 L 4 57 L 3 57 z "
     class="ColorScheme-Text"
     id="path10" />
  <path
     style="color:#232629;fill:#d3ecf3;fill-opacity:1;stroke:none"
     d="m 39.885874,25.018 -0.310546,1.060546 c -0.636,-0.053 -1.276719,0.01708 -1.886719,0.205078 l -0.529297,-0.96875 -1.755859,0.958985 0.529297,0.96875 c -0.489,0.412 -0.89336,0.912562 -1.19336,1.476562 l -1.05664,-0.308593 -0.5625,1.917968 1.060546,0.310547 c -0.053,0.636 0.01513,1.278672 0.203125,1.888672 l -0.96875,0.529297 0.958985,1.755859 0.96875,-0.53125 c 0.412,0.489 0.914515,0.895313 1.478515,1.195313 l -0.310547,1.05664 1.919922,0.5625 0.310547,-1.060546 c 0.636,0.053 1.276719,-0.01708 1.886719,-0.205078 l 0.53125,0.96875 1.753906,-0.958985 -0.529297,-0.96875 c 0.489,-0.412 0.89336,-0.912562 1.19336,-1.476562 l 1.05664,0.308593 0.5625,-1.917968 -1.060547,-0.310547 c 0.053,-0.636 -0.01512,-1.278672 -0.203124,-1.888672 l 0.96875,-0.529297 -0.958985,-1.755859 -0.96875,0.53125 c -0.412,-0.489 -0.914515,-0.895313 -1.478515,-1.195313 l 0.310546,-1.05664 z m -0.988281,2.048828 c 0.198468,-0.01293 0.398731,-0.0109 0.597657,0.0059 0.265233,0.02234 0.529812,0.07048 0.789062,0.146484 0.998,0.293 1.843469,0.963141 2.355469,1.869141 0.532,0.94 0.661422,2.05675 0.357422,3.09375 -0.293,0.998 -0.963141,1.843469 -1.869141,2.355469 -0.94,0.532 -2.05675,0.661422 -3.09375,0.357422 -0.998,-0.293 -1.845422,-0.963141 -2.357422,-1.869141 -0.532,-0.94 -0.661422,-2.05675 -0.357422,-3.09375 0.293,-0.998 0.963141,-1.843469 1.869141,-2.355469 0.52875,-0.29925 1.11358,-0.470984 1.708984,-0.509765 z m -13.330078,2.921875 -1.990234,0.195312 0.107422,1.099609 c -0.61,0.188001 -1.177829,0.490579 -1.673829,0.892579 l -0.855468,-0.701172 -1.269532,1.544922 0.853516,0.701171 c -0.3,0.565001 -0.486687,1.18236 -0.554687,1.81836 l -1.095703,0.107422 0.195312,1.990234 1.099609,-0.107422 c 0.188,0.61 0.490578,1.177828 0.892579,1.673828 l -0.701172,0.855469 1.544922,1.269531 0.701171,-0.853515 c 0.565,0.3 1.18236,0.486687 1.81836,0.554687 l 0.107422,1.095703 1.990234,-0.195312 -0.107422,-1.099609 c 0.61,-0.188 1.177828,-0.490579 1.673828,-0.892579 l 0.855469,0.701172 1.269531,-1.544922 L 29.575328,38.393 c 0.3,-0.565 0.486687,-1.18236 0.554687,-1.81836 l 1.095703,-0.107422 -0.195312,-1.990234 -1.09961,0.107422 c -0.188,-0.61 -0.490578,-1.177828 -0.892578,-1.673828 l 0.701172,-0.855469 -1.544922,-1.269531 -0.701172,0.853515 c -0.565,-0.3 -1.182359,-0.486687 -1.818359,-0.554687 z m -0.02734,2.085937 c 0.766032,0.07373 1.500829,0.368719 2.111329,0.855469 0.845,0.674 1.381328,1.660328 1.486328,2.736328 0.102,1.036 -0.204516,2.070766 -0.853516,2.884766 -0.674,0.845 -1.662281,1.381328 -2.738281,1.486328 -1.036,0.102 -2.068813,-0.204516 -2.882813,-0.853516 -0.845,-0.674 -1.381328,-1.662281 -1.486328,-2.738281 -0.102,-1.036 0.204516,-2.068813 0.853516,-2.882813 0.674,-0.845 1.660328,-1.381328 2.736328,-1.486328 0.259,-0.02555 0.518094,-0.02653 0.773437,-0.002 z m 8.617184,3.982422 v 1.105469 c -0.626,0.128 -1.220906,0.374562 -1.753906,0.726562 l -0.78125,-0.78125 -1.414063,1.414063 0.78125,0.78125 c -0.353,0.533 -0.601469,1.127906 -0.730469,1.753906 h -1.101562 v 2 h 1.105469 c 0.128,0.626 0.374562,1.220906 0.726562,1.753906 l -0.78125,0.78125 1.414063,1.414063 0.78125,-0.78125 c 0.533,0.353 1.127906,0.601469 1.753906,0.730469 v 1.101562 h 2 v -1.105469 c 0.626,-0.128 1.220906,-0.374562 1.753906,-0.726562 l 0.78125,0.78125 1.414063,-1.414063 -0.78125,-0.78125 c 0.353,-0.533 0.601467,-1.127906 0.730468,-1.753906 h 1.101563 v -2 H 40.05189 c -0.128,-0.626 -0.374562,-1.220906 -0.726562,-1.753906 l 0.78125,-0.78125 -1.414063,-1.414063 -0.78125,0.78125 c -0.533,-0.353 -1.127906,-0.601469 -1.753906,-0.730469 v -1.101562 z m 1,2 c 1.041,0 2.040109,0.405859 2.787109,1.130859 0.775,0.753 1.212891,1.788141 1.212891,2.869141 0,1.041 -0.405859,2.040109 -1.130859,2.787109 -0.753001,0.775 -1.788141,1.212891 -2.869141,1.212891 -1.041,0 -2.04011,-0.405859 -2.787109,-1.130859 -0.775001,-0.753 -1.212891,-1.788141 -1.212891,-2.869141 0,-1.041 0.405859,-2.040109 1.130859,-2.787109 0.753,-0.775 1.788141,-1.212891 2.869141,-1.212891 z"
     class="ColorScheme-Text"
     id="path12" />
</svg>
