<?xml version="1.0" encoding="UTF-8" standalone="no"?>
<svg
   xmlns:dc="http://purl.org/dc/elements/1.1/"
   xmlns:cc="http://creativecommons.org/ns#"
   xmlns:rdf="http://www.w3.org/1999/02/22-rdf-syntax-ns#"
   xmlns:svg="http://www.w3.org/2000/svg"
   xmlns="http://www.w3.org/2000/svg"
   xmlns:xlink="http://www.w3.org/1999/xlink"
   xmlns:sodipodi="http://sodipodi.sourceforge.net/DTD/sodipodi-0.dtd"
   xmlns:inkscape="http://www.inkscape.org/namespaces/inkscape"
   viewBox="0 0 64 64"
   version="1.1"
   id="svg12"
   sodipodi:docname="folder-Pop_OS.svg"
   inkscape:version="1.0.1 (3bc2e813f5, 2020-09-07)">
  <metadata
     id="metadata16">
    <rdf:RDF>
      <cc:Work
         rdf:about="">
        <dc:format>image/svg+xml</dc:format>
        <dc:type
           rdf:resource="http://purl.org/dc/dcmitype/StillImage" />
      </cc:Work>
    </rdf:RDF>
  </metadata>
  <sodipodi:namedview
     pagecolor="#ffffff"
     bordercolor="#666666"
     borderopacity="1"
     objecttolerance="10"
     gridtolerance="10"
     guidetolerance="10"
     inkscape:pageopacity="0"
     inkscape:pageshadow="2"
     inkscape:window-width="1920"
     inkscape:window-height="1007"
     id="namedview14"
     showgrid="false"
     inkscape:zoom="3.6875"
     inkscape:cx="32"
     inkscape:cy="32"
     inkscape:window-x="0"
     inkscape:window-y="0"
     inkscape:window-maximized="1"
     inkscape:current-layer="svg12"
     inkscape:document-rotation="0" />
  <defs
     id="defs3051">
    <linearGradient
       inkscape:collect="always"
       id="linearGradient835">
      <stop
         style="stop-color:#00a489;stop-opacity:1"
         offset="0"
         id="stop831" />
      <stop
         style="stop-color:#006453;stop-opacity:1"
         offset="1"
         id="stop833" />
    </linearGradient>
    <linearGradient
       inkscape:collect="always"
       id="linearGradient827">
      <stop
         style="stop-color:#004c5a;stop-opacity:1"
         offset="0"
         id="stop823" />
      <stop
         style="stop-color:#00a5be;stop-opacity:1"
         offset="1"
         id="stop825" />
    </linearGradient>
    <style
       type="text/css"
       id="current-color-scheme">
      .ColorScheme-Text {
        color:#31363b;
      }
      .ColorScheme-Background {
        color:#eff0f1;
      }
      .ColorScheme-Highlight {
        color:#3daee9;
      }
      .ColorScheme-ViewText {
        color:#31363b;
      }
      .ColorScheme-ViewBackground {
        color:#fcfcfc;
      }
      .ColorScheme-ViewHover {
        color:#93cee9;
      }
      .ColorScheme-ViewFocus{
        color:#3daee9;
      }
      .ColorScheme-ButtonText {
        color:#31363b;
      }
      .ColorScheme-ButtonBackground {
        color:#eff0f1;
      }
      .ColorScheme-ButtonHover {
        color:#93cee9;
      }
      .ColorScheme-ButtonFocus{
        color:#3daee9;
      }
      </style>
    <linearGradient
       inkscape:collect="always"
       xlink:href="#linearGradient827"
       id="linearGradient829"
       x1="23"
       y1="21"
       x2="48.525425"
       y2="69.694916"
       gradientUnits="userSpaceOnUse" />
    <linearGradient
       inkscape:collect="always"
       xlink:href="#linearGradient835"
       id="linearGradient837"
       x1="4"
       y1="13"
       x2="60"
       y2="13"
       gradientUnits="userSpaceOnUse" />
  </defs>
  <path
     style="fill:url(#linearGradient829);fill-opacity:1;stroke:none"
     d="M 4 6 L 4 11 L 4 20 L 3 20 L 3 21 L 3.0019531 21 C 3.0019031 21.004 3 21.008019 3 21.011719 L 3 57 L 3 58 L 4 58 L 60 58 L 61 58 L 61 57 L 61 21.011719 L 61 21 L 61 16 L 60 16 L 60 11.009766 C 60 11.006766 59.998047 11.004 59.998047 11 L 60 11 L 60 10 L 32 10 L 28 6 L 4 6 z "
     class="ColorScheme-Highlight"
     id="path4" />
  <path
     style="fill-opacity:1;fill-rule:evenodd;fill:url(#linearGradient837)"
     d="M 4 6 L 4 11 L 4 20 L 22 20 L 26 16 L 60 16 L 60 11.009766 C 60 11.006766 59.998047 11.004 59.998047 11 L 60 11 L 60 10 L 32 10 L 28 6 L 4 6 z "
     id="path6" />
  <path
     style="fill:#ffffff;fill-opacity:0.2;fill-rule:evenodd"
     d="M 28 6 L 31 11 L 33 11 L 60 11 L 60 10 L 33 10 L 32 10 L 28 6 z M 26 16 L 22 20 L 3 20 L 3 21 L 23 21 L 26 16 z "
     id="path8" />
  <path
     style="fill-opacity:0.2;fill-rule:evenodd"
     d="M 26 16 L 20 19 L 4 19 L 4 20 L 22 20 L 26 16 z M 3 57 L 3 58 L 4 58 L 60 58 L 61 58 L 61 57 L 60 57 L 4 57 L 3 57 z "
     class="ColorScheme-Text"
     id="path10" />
  <path
     style="fill:#ffffff;fill-opacity:1;stroke-width:0.0218857"
     id="path2-3"
     d="m 41.506585,39.996115 c -0.04115,0.174754 -0.129917,0.329604 -0.281479,0.42694 -0.238162,0.152637 -0.528305,0.108417 -0.733999,-0.07744 -0.192707,-0.17255 -0.257667,-0.464559 -0.197039,-0.716744 0.06284,-0.263248 0.261994,-0.495525 0.517481,-0.568518 0.569451,-0.161491 0.805472,0.471183 0.695036,0.935741 z m -0.348599,-1.796276 c -0.352931,-0.143791 -0.231673,-2.035177 0.09096,-4.331401 0.09096,-0.641521 0.24684,-0.944594 0.422218,-1.099445 0.251163,-0.219004 0.70803,-0.227852 1.017656,-0.181394 0.355091,0.05305 0.695037,0.22121 0.952693,0.475606 0.227353,0.22564 0.253328,0.455713 0.175379,0.754345 -0.12774,0.475625 -0.346434,0.931328 -0.55646,1.375966 -0.04975,0.108416 -0.485008,0.951229 -0.54347,1.055198 -1.050129,1.889182 -1.260155,2.072796 -1.558955,1.951125 z" />
  <path
     style="fill:#ffffff;fill-opacity:1;stroke-width:0.0218857"
     id="path4-3"
     d="m 34.034433,37.348158 c 0.207859,0.906992 0.186197,1.902451 0.0093,2.619194 -0.166722,0.676927 -0.619249,1.28305 -1.338102,1.486568 -0.630076,0.179183 -1.364086,0.04862 -1.814449,-0.39376 -0.740505,-0.725597 -1.173548,-2.428951 -0.980843,-3.665545 0.155894,-0.993256 0.679875,-2.265249 1.829606,-2.32055 0.07358,-0.0043 0.147235,-0.0017 0.220852,0.0043 1.17138,0.108411 1.810119,1.117139 2.074277,2.269673 z M 31.916846,39.4121 c 0.06499,0.0111 0.129909,0.0111 0.194871,-0.0095 0.218682,-0.06411 0.344267,-0.296433 0.402737,-0.522073 0.08875,-0.342884 0.07582,-0.712313 -0.03892,-1.048562 -0.0585,-0.170335 -0.145071,-0.336248 -0.277152,-0.46013 -0.465511,-0.435791 -0.931037,0.01766 -1.011146,0.533131 -0.06286,0.402617 0.02809,0.86938 0.274983,1.194568 0.114742,0.150425 0.279312,0.280941 0.454684,0.311914 z" />
  <path
     style="fill:#ffffff;fill-opacity:1;stroke-width:0.0218857"
     id="path6-6"
     d="m 36.5699,39.270526 c -0.0017,1.674606 0.162383,2.955439 -0.558631,3.108084 -0.584607,0.12164 -0.565112,-0.40262 -0.610593,-0.842843 -0.173209,-1.705574 -0.331277,-4.539342 -0.398398,-6.253766 0.04768,-0.73664 0.530479,-1.18793 1.032808,-1.298528 0.775149,-0.170338 1.602261,-0.121656 2.288638,0.311911 1.357584,0.858316 1.465854,2.433366 0.643069,3.71863 -0.450366,0.701254 -1.812292,1.210055 -2.396893,1.165811 z m 0.173212,-3.754035 c -0.08447,0.01334 -0.223021,0.05305 -0.261989,0.137158 -0.09308,0.196877 -0.08665,1.446754 0.07582,1.971029 0.02606,0.0863 0.0844,0.168126 0.168889,0.199104 0.307454,0.114999 0.584606,-0.269887 0.710183,-0.502169 0.175389,-0.322975 0.231679,-0.703459 0.121232,-1.057412 -0.10391,-0.32961 -0.426546,-0.807431 -0.814122,-0.74771 z" />
  <path
     style="fill:#ffffff;fill-opacity:1;stroke-width:0.0218857"
     id="path8-7"
     d="m 28.80543,36.348262 c -0.508819,1.099451 -1.353255,1.973248 -2.522475,2.404617 0.335616,0.89592 0.677716,1.780788 1.01116,2.674503 0.186206,0.48224 0.363761,1.010946 0.20136,1.486566 -0.168891,0.486667 -0.827105,0.621612 -1.305621,0.103946 -0.920212,-0.999898 -4.031639,-7.335515 -4.261152,-7.811123 -0.194869,-0.409247 -0.487171,-0.847251 -0.478514,-1.320653 0.01522,-0.712321 1.093444,-1.433486 1.610928,-1.802911 0.723182,-0.515429 1.558953,-0.867169 2.453188,-0.869381 0.697198,0 1.292638,0.194672 1.820946,0.539762 0.8098,0.530925 1.372755,1.378183 1.580616,2.336047 0.181866,0.842819 0.142903,1.705568 -0.110405,2.258606 M 26.43454,35.144829 c -0.181875,-0.67471 -0.593265,-1.296321 -1.11076,-1.73212 -0.112609,-0.09508 -0.233845,-0.1836 -0.374585,-0.232268 -0.970011,-0.325187 -0.549959,1.33172 -0.3919,1.749812 0.218692,0.586219 0.549963,1.327288 0.99384,1.76973 0.09748,0.0974 0.212191,0.183599 0.344266,0.210147 0.201362,0.04199 0.387568,-0.10178 0.489339,-0.269887 0.08446,-0.139362 0.116881,-0.305269 0.136405,-0.466754 0.03689,-0.342887 0.0043,-0.692409 -0.08665,-1.02866 z" />
  <path
     style="fill:#ffffff;fill-opacity:1;stroke-width:0.0218857"
     id="path10-5"
     d="m 40.405259,44.769316 c -0.0043,0.971132 -0.58461,1.942277 -1.864247,1.942277 -1.279642,0 -1.875081,-0.955658 -1.875081,-1.931221 0,-1.216691 0.829271,-1.968817 1.901053,-1.968817 1.24284,0.0111 1.849107,0.953432 1.838275,1.957761 z m -1.838275,-1.344995 c -0.803287,0 -1.253655,0.570745 -1.257988,1.349409 0,0.67692 0.370261,1.311822 1.242833,1.311822 0.872589,0 1.206026,-0.687984 1.206026,-1.318456 0.01084,-0.654791 -0.329105,-1.32729 -1.190871,-1.342775 z m 2.375245,2.78953 c 0,0.143791 0.0043,-0.683555 0,-0.809643 h 0.588944 l 0.04113,0.506578 c 0.19271,0.112863 0.491503,0.196883 0.736181,0.196883 0.454686,0 0.928876,-0.117274 0.928876,-0.570739 -0.01515,-0.411453 -0.543476,-0.495525 -0.970027,-0.539756 -0.725333,-0.07529 -1.309953,-0.256623 -1.309953,-1.088386 0,-0.74107 0.820616,-1.110508 1.431214,-1.110508 0.491503,-0.0111 0.840105,0.0685 1.283966,0.431368 0,0.298641 -0.0043,0.475621 -0.0043,0.774262 h -0.569357 l -0.03686,-0.491109 c -0.229516,-0.112853 -0.465521,-0.143778 -0.647403,-0.139362 -0.391904,0.0043 -0.809791,0.192469 -0.809791,0.528706 0,0.329617 0.270654,0.42032 0.751332,0.491094 0.783808,0.106257 1.539467,0.287594 1.539467,1.141485 -0.0043,0.933528 -0.861754,1.179082 -1.597929,1.179082 -0.56079,0.0017 -0.911554,-0.103946 -1.355425,-0.499955 z"
     inkscape:connector-curvature="0" />
  <path
     style="fill:#ffffff;stroke-width:0.0218857"
     id="path12"
     d="m 35.871299,46.393034 c 0,0.170339 -0.13424,0.307487 -0.300964,0.307487 h -3.479498 c -0.166724,0 -0.300965,-0.137148 -0.300965,-0.307487 v -0.0265 c 0,-0.170336 0.134241,-0.307488 0.300965,-0.307488 h 3.479498 c 0.166724,0 0.300964,0.137152 0.300964,0.307488 z"
     inkscape:connector-curvature="0" />
</svg>
