<?xml version="1.0" encoding="UTF-8" standalone="no"?>
<svg
   viewBox="0 0 64 64"
   version="1.1"
   id="svg12"
   sodipodi:docname="folder-design.svg"
   inkscape:version="1.2.2 (b0a8486541, 2022-12-01)"
   xmlns:inkscape="http://www.inkscape.org/namespaces/inkscape"
   xmlns:sodipodi="http://sodipodi.sourceforge.net/DTD/sodipodi-0.dtd"
   xmlns:xlink="http://www.w3.org/1999/xlink"
   xmlns="http://www.w3.org/2000/svg"
   xmlns:svg="http://www.w3.org/2000/svg"
   xmlns:rdf="http://www.w3.org/1999/02/22-rdf-syntax-ns#"
   xmlns:cc="http://creativecommons.org/ns#"
   xmlns:dc="http://purl.org/dc/elements/1.1/">
  <metadata
     id="metadata16">
    <rdf:RDF>
      <cc:Work
         rdf:about="">
        <dc:format>image/svg+xml</dc:format>
        <dc:type
           rdf:resource="http://purl.org/dc/dcmitype/StillImage" />
      </cc:Work>
    </rdf:RDF>
  </metadata>
  <sodipodi:namedview
     pagecolor="#ffffff"
     bordercolor="#666666"
     borderopacity="1"
     objecttolerance="10"
     gridtolerance="10"
     guidetolerance="10"
     inkscape:pageopacity="0"
     inkscape:pageshadow="2"
     inkscape:window-width="1920"
     inkscape:window-height="994"
     id="namedview14"
     showgrid="false"
     inkscape:zoom="3.6875"
     inkscape:cx="15.59322"
     inkscape:cy="32.135593"
     inkscape:window-x="0"
     inkscape:window-y="0"
     inkscape:window-maximized="1"
     inkscape:current-layer="svg12"
     inkscape:showpageshadow="2"
     inkscape:pagecheckerboard="0"
     inkscape:deskcolor="#d1d1d1" />
  <defs
     id="defs3051">
    <linearGradient
       inkscape:collect="always"
       id="linearGradient835">
      <stop
         style="stop-color:#00a489;stop-opacity:1"
         offset="0"
         id="stop831" />
      <stop
         style="stop-color:#006453;stop-opacity:1"
         offset="1"
         id="stop833" />
    </linearGradient>
    <linearGradient
       inkscape:collect="always"
       id="linearGradient827">
      <stop
         style="stop-color:#004c5a;stop-opacity:1"
         offset="0"
         id="stop823" />
      <stop
         style="stop-color:#00a5be;stop-opacity:1"
         offset="1"
         id="stop825" />
    </linearGradient>
    <style
       type="text/css"
       id="current-color-scheme">
      .ColorScheme-Text {
        color:#31363b;
      }
      .ColorScheme-Background {
        color:#eff0f1;
      }
      .ColorScheme-Highlight {
        color:#3daee9;
      }
      .ColorScheme-ViewText {
        color:#31363b;
      }
      .ColorScheme-ViewBackground {
        color:#fcfcfc;
      }
      .ColorScheme-ViewHover {
        color:#93cee9;
      }
      .ColorScheme-ViewFocus{
        color:#3daee9;
      }
      .ColorScheme-ButtonText {
        color:#31363b;
      }
      .ColorScheme-ButtonBackground {
        color:#eff0f1;
      }
      .ColorScheme-ButtonHover {
        color:#93cee9;
      }
      .ColorScheme-ButtonFocus{
        color:#3daee9;
      }
      </style>
    <linearGradient
       inkscape:collect="always"
       xlink:href="#linearGradient827"
       id="linearGradient829"
       x1="23"
       y1="21"
       x2="48.525425"
       y2="69.694916"
       gradientUnits="userSpaceOnUse" />
    <linearGradient
       inkscape:collect="always"
       xlink:href="#linearGradient835"
       id="linearGradient837"
       x1="4"
       y1="13"
       x2="60"
       y2="13"
       gradientUnits="userSpaceOnUse" />
  </defs>
  <path
     style="fill:url(#linearGradient829);fill-opacity:1;stroke:none"
     d="M 4 6 L 4 11 L 4 20 L 3 20 L 3 21 L 3.0019531 21 C 3.0019031 21.004 3 21.008019 3 21.011719 L 3 57 L 3 58 L 4 58 L 60 58 L 61 58 L 61 57 L 61 21.011719 L 61 21 L 61 16 L 60 16 L 60 11.009766 C 60 11.006766 59.998047 11.004 59.998047 11 L 60 11 L 60 10 L 32 10 L 28 6 L 4 6 z "
     class="ColorScheme-Highlight"
     id="path4" />
  <path
     style="fill-opacity:1;fill-rule:evenodd;fill:url(#linearGradient837)"
     d="M 4 6 L 4 11 L 4 20 L 22 20 L 26 16 L 60 16 L 60 11.009766 C 60 11.006766 59.998047 11.004 59.998047 11 L 60 11 L 60 10 L 32 10 L 28 6 L 4 6 z "
     id="path6" />
  <path
     style="fill:#ffffff;fill-opacity:0.2;fill-rule:evenodd"
     d="M 28 6 L 31 11 L 33 11 L 60 11 L 60 10 L 33 10 L 32 10 L 28 6 z M 26 16 L 22 20 L 3 20 L 3 21 L 23 21 L 26 16 z "
     id="path8" />
  <path
     style="fill-opacity:0.2;fill-rule:evenodd"
     d="M 26 16 L 20 19 L 4 19 L 4 20 L 22 20 L 26 16 z M 3 57 L 3 58 L 4 58 L 60 58 L 61 58 L 61 57 L 60 57 L 4 57 L 3 57 z "
     class="ColorScheme-Text"
     id="path10" />
  <path
     style="color:#232629;fill:#e5e5e5;fill-opacity:1;stroke:none"
     d="m 31.908213,22.81 c -0.50689,0 -0.921875,0.409126 -0.921875,0.916016 v 0.83789 c -1.633394,0.41943 -2.808594,1.868131 -2.808594,3.609375 0,1.21888 0.581934,2.303638 1.490234,2.986328 0.09669,0.114271 0.15625,0.258772 0.15625,0.419922 0,0.04688 4.1e-5,0.09277 -0.0059,0.136719 l -4.037109,8.556641 h -1.669922 c -0.27249,0 -0.496094,0.219697 -0.496094,0.492187 v 0.002 c 0,0.27249 0.223604,0.492188 0.496094,0.492188 h 1.205078 l -3.117188,6.607422 c -0.19631,0.41899 -0.09867,0.903287 0.208985,1.216797 L 21.207,51.522938 23.105437,49.466297 c 0.50396,0.13185 1.042945,-0.108347 1.271485,-0.591797 l 3.59375,-7.615234 h 3.158203 v 0.654297 c 0,0.41606 0.338822,0.751953 0.757812,0.751953 h 0.04102 c 0.41899,0 0.759766,-0.335893 0.759766,-0.751953 v -0.654297 h 3.230468 l 3.591797,7.615234 c 0.22561,0.48638 0.768501,0.723647 1.269531,0.591797 l 1.898438,2.056641 -1.197266,-2.439453 c 0.30472,-0.31351 0.403342,-0.794877 0.207032,-1.216797 l -3.117188,-6.607422 h 1.13086 c 0.275419,0 0.496093,-0.219698 0.496093,-0.492188 0,-0.27249 -0.220674,-0.49124 -0.496093,-0.49414 h -1.595704 l -4.035156,-8.556641 c -0.0059,-0.04395 -0.0059,-0.08984 -0.0059,-0.136719 0,-0.15822 0.05858,-0.305651 0.152343,-0.419922 0.9083,-0.68269 1.494141,-1.767448 1.494141,-2.986328 0,-1.765071 -1.230465,-3.23164 -2.882812,-3.628906 v -0.818359 c 0,-0.50689 -0.410102,-0.916016 -0.919922,-0.916016 z m 0.876953,3.378906 c 0.777175,0.326475 1.322266,1.091537 1.322266,1.984375 0,1.18958 -0.96667,2.154297 -2.16211,2.154297 -1.2013,0 -2.162109,-0.964717 -2.162109,-2.154297 0,-0.863919 0.513565,-1.604318 1.253906,-1.947265 0.10977,0.381986 0.449564,0.667969 0.871094,0.667969 0.432436,-1e-6 0.779293,-0.303272 0.876953,-0.705079 z m -0.857422,7.154297 h 0.01758 0.01758 c 0.1172,0 0.220696,0.05468 0.285156,0.136719 l 3.205079,6.792969 h -2.765625 v -0.794922 c 0,-0.41899 -0.340776,-0.75586 -0.759766,-0.75586 h -0.04102 c -0.41899,10e-7 -0.757812,0.3398 -0.757812,0.75586 v 0.794922 h -2.69336 l 3.205079,-6.792969 c 0.06739,-0.08497 0.169909,-0.136719 0.287109,-0.136719 z"
     class="ColorScheme-Text"
     id="path144" />
</svg>
