<?xml version="1.0" encoding="UTF-8" standalone="no"?>
<svg
   viewBox="0 0 64 64"
   version="1.1"
   id="svg4"
   sodipodi:docname="folder-reddit.svg"
   inkscape:version="1.4.3 (unknown)"
   xmlns:inkscape="http://www.inkscape.org/namespaces/inkscape"
   xmlns:sodipodi="http://sodipodi.sourceforge.net/DTD/sodipodi-0.dtd"
   xmlns:xlink="http://www.w3.org/1999/xlink"
   xmlns="http://www.w3.org/2000/svg"
   xmlns:svg="http://www.w3.org/2000/svg">
  <sodipodi:namedview
     id="namedview4"
     pagecolor="#ffffff"
     bordercolor="#000000"
     borderopacity="0.25"
     inkscape:showpageshadow="2"
     inkscape:pageopacity="0.0"
     inkscape:pagecheckerboard="0"
     inkscape:deskcolor="#d1d1d1"
     showgrid="false"
     inkscape:zoom="8.3306018"
     inkscape:cx="32.470643"
     inkscape:cy="33.971135"
     inkscape:window-width="1920"
     inkscape:window-height="994"
     inkscape:window-x="0"
     inkscape:window-y="0"
     inkscape:window-maximized="1"
     inkscape:current-layer="svg4">
    <inkscape:grid
       id="grid8"
       units="px"
       originx="0"
       originy="0"
       spacingx="1"
       spacingy="1"
       empcolor="#0099e5"
       empopacity="0.30196078"
       color="#0099e5"
       opacity="0.14902"
       empspacing="5"
       enabled="true"
       visible="false" />
  </sodipodi:namedview>
  <defs
     id="defs3051">
    <linearGradient
       id="linearGradient9"
       inkscape:collect="always">
      <stop
         style="stop-color:#00a489;stop-opacity:1;"
         offset="0"
         id="stop9" />
      <stop
         style="stop-color:#006453;stop-opacity:1;"
         offset="1"
         id="stop10" />
    </linearGradient>
    <linearGradient
       id="linearGradient8"
       inkscape:collect="always">
      <stop
         style="stop-color:#004c5a;stop-opacity:1;"
         offset="0"
         id="stop7" />
      <stop
         style="stop-color:#00a5be;stop-opacity:1;"
         offset="1"
         id="stop8" />
    </linearGradient>
    <style
       type="text/css"
       id="current-color-scheme">
      .ColorScheme-Text {
      color:#232629;
      }
      .ColorScheme-Accent {
      color:#3daee9;
      }
    </style>
    <linearGradient
       inkscape:collect="always"
       xlink:href="#linearGradient8"
       id="linearGradient7"
       x1="22.998745"
       y1="21"
       x2="50"
       y2="70"
       gradientUnits="userSpaceOnUse" />
    <linearGradient
       inkscape:collect="always"
       xlink:href="#linearGradient9"
       id="linearGradient10"
       x1="4.0006635"
       y1="-13.2"
       x2="59.995008"
       y2="-13.2"
       gradientUnits="userSpaceOnUse"
       gradientTransform="translate(0,26.2)" />
  </defs>
  <path
     style="fill:url(#linearGradient7)"
     d="m 4.0006635,10 v 1 9 0 c -0.5203637,0.02153 -1.0229638,0.505476 -0.999899,1 h 0.00195 c -4.69e-5,0.004 -0.00195,0.008 -0.00195,0.01172 V 56 c 0.00871,0.999392 0.9801138,2.005992 1.999798,2 v 0 H 58.995109 v 0 c 1.011732,0.02205 1.994216,-0.972534 1.999798,-2 V 21.011719 21 17 c 0.05936,-0.589244 -0.407896,-1.006383 -0.999899,-1 v -4 c 0,-0.003 -0.002,0.004 -0.002,0 h 0.002 v 0 c -0.0061,-1.000671 -0.953819,-1.995969 -1.999798,-2 H 31.997836 L 27.99824,6 H 8.0002595 C 5.9630216,5.99492 4.0363539,7.9703236 4.0006635,10 Z"
     class="ColorScheme-Accent"
     id="path1" />
  <path
     style="fill:url(#linearGradient10);fill-opacity:1"
     d="m 4.0302775,10 -0.029614,1 v 9 H 21.998846 l 3.999596,-4 h 33.996566 v -4 c 0,-0.003 -0.002,0.004 -0.002,0 h 0.002 C 59.988808,10.988725 58.990992,9.994319 57.99521,10 H 31.997836 L 27.99824,6 H 8.0002595 C 5.9928069,6.0026 3.994256,8.0072 4.0302775,10 Z"
     id="path2" />
  <path
     style="fill:#ffffff;fill-opacity:0.2"
     d="m 27.99824,6 2.999697,5 h 1.999798 24.997475 c 1.212814,-0.06389 2.005543,1.005906 1.999798,2 v -1 c 6e-4,-0.992592 -0.988601,-1.993446 -1.999798,-2 H 32.997735 31.997836 Z m -1.999798,10 -3.999596,4 H 3.0007645 v 1 H 22.998745 Z"
     id="path3" />
  <path
     style="fill-opacity:0.2"
     d="m 25.998442,16 -5.999394,3 H 4.101 L 4.0006635,20 H 21.998846 Z M 3.0007645,56 c 0.00641,1.008598 0.9937008,2.001463 1.999798,2 v 0 H 58.995109 v 0 0 c 1.002828,0.0016 2.001139,-0.999662 1.999798,-2 z"
     class="ColorScheme-Text"
     id="path4"
     sodipodi:nodetypes="cccccccscccscc" />
  <path
     d="m 43.747836,36.558108 c 0,-1.827951 -1.482549,-3.310419 -3.300034,-3.310419 -0.716083,0 -1.399901,0.2302 -1.96448,0.649233 -1.601959,-0.810375 -3.506754,-1.298297 -5.521621,-1.41341 l 1.317251,-3.651059 3.185456,0.796537 c 0.06875,1.31217 1.156595,2.352568 2.478509,2.352568 1.367643,0 2.483006,-1.11881 2.483006,-2.490679 0,-1.372056 -1.115363,-2.490878 -2.483006,-2.490878 -0.931765,0 -1.744135,0.515622 -2.171025,1.279969 l -4.365004,-1.09581 -1.900133,5.271665 c -2.189329,0.0644 -4.264075,0.561664 -5.9944,1.431933 -0.564586,-0.419046 -1.243748,-0.644566 -1.959836,-0.644566 -1.822129,0.0053 -3.304683,1.491642 -3.304683,3.314916 0,0.893127 0.36719,1.754048 0.995955,2.371106 -0.04127,0.2624 -0.0642,0.529466 -0.0642,0.796353 0,2.002777 1.165758,3.862932 3.277078,5.234975 2.019531,1.31666 4.695448,2.039459 7.532006,2.039459 2.836561,0 5.507816,-0.722799 7.531821,-2.039459 2.111334,-1.376718 3.277257,-3.236696 3.277257,-5.234975 0,-0.262388 -0.02288,-0.524788 -0.05972,-0.787188 0.637925,-0.612366 1.009783,-1.477966 1.009783,-2.380271 z m -16.91824,1.933717 c 0,-1.063612 0.862925,-1.929212 1.923251,-1.929212 1.060157,0 1.923083,0.8656 1.923083,1.929212 0,1.063433 -0.862926,1.929035 -1.923083,1.929035 -1.060326,0 -1.923251,-0.865602 -1.923251,-1.929035 z m 5.292128,6.104884 c -1.491695,0 -2.946646,-0.423541 -4.20419,-1.224578 l 0.738865,-1.164851 c 1.037375,0.66291 2.23988,1.012888 3.46998,1.012888 1.23013,0 2.427963,-0.349978 3.469821,-1.012888 l 0.739036,1.164851 c -1.266863,0.801037 -2.721811,1.224578 -4.213512,1.224578 z m 3.410288,-4.175849 c -1.060326,0 -1.923075,-0.865602 -1.923075,-1.929035 0,-1.063612 0.862749,-1.929212 1.923075,-1.929212 1.060324,0 1.923073,0.8656 1.923073,1.929212 0,1.063433 -0.862749,1.929035 -1.923073,1.929035 z m 0,0"
     id="path2-3"
     style="fill:#e5e5e5;fill-opacity:1;stroke-width:0.0414368" />
</svg>
