<?xml version="1.0" encoding="UTF-8" standalone="no"?>
<svg
   viewBox="0 0 64 64"
   version="1.1"
   id="svg4"
   sodipodi:docname="folder-projects.svg"
   inkscape:version="1.4.3 (unknown)"
   xmlns:inkscape="http://www.inkscape.org/namespaces/inkscape"
   xmlns:sodipodi="http://sodipodi.sourceforge.net/DTD/sodipodi-0.dtd"
   xmlns:xlink="http://www.w3.org/1999/xlink"
   xmlns="http://www.w3.org/2000/svg"
   xmlns:svg="http://www.w3.org/2000/svg">
  <sodipodi:namedview
     id="namedview4"
     pagecolor="#ffffff"
     bordercolor="#000000"
     borderopacity="0.25"
     inkscape:showpageshadow="2"
     inkscape:pageopacity="0.0"
     inkscape:pagecheckerboard="0"
     inkscape:deskcolor="#d1d1d1"
     showgrid="false"
     inkscape:zoom="8.3306018"
     inkscape:cx="31.630368"
     inkscape:cy="29.289601"
     inkscape:window-width="1920"
     inkscape:window-height="994"
     inkscape:window-x="0"
     inkscape:window-y="0"
     inkscape:window-maximized="1"
     inkscape:current-layer="svg4">
    <inkscape:grid
       id="grid8"
       units="px"
       originx="0"
       originy="0"
       spacingx="1"
       spacingy="1"
       empcolor="#0099e5"
       empopacity="0.30196078"
       color="#0099e5"
       opacity="0.14902"
       empspacing="5"
       enabled="true"
       visible="false" />
  </sodipodi:namedview>
  <defs
     id="defs3051">
    <linearGradient
       id="linearGradient9"
       inkscape:collect="always">
      <stop
         style="stop-color:#00a489;stop-opacity:1;"
         offset="0"
         id="stop9" />
      <stop
         style="stop-color:#006453;stop-opacity:1;"
         offset="1"
         id="stop10" />
    </linearGradient>
    <linearGradient
       id="linearGradient8"
       inkscape:collect="always">
      <stop
         style="stop-color:#004c5a;stop-opacity:1;"
         offset="0"
         id="stop7" />
      <stop
         style="stop-color:#00a5be;stop-opacity:1;"
         offset="1"
         id="stop8" />
    </linearGradient>
    <style
       type="text/css"
       id="current-color-scheme">
      .ColorScheme-Text {
      color:#232629;
      }
      .ColorScheme-Accent {
      color:#3daee9;
      }
    </style>
    <linearGradient
       inkscape:collect="always"
       xlink:href="#linearGradient8"
       id="linearGradient7"
       x1="22.998745"
       y1="21"
       x2="50"
       y2="70"
       gradientUnits="userSpaceOnUse" />
    <linearGradient
       inkscape:collect="always"
       xlink:href="#linearGradient9"
       id="linearGradient10"
       x1="4.0006635"
       y1="-13.2"
       x2="59.995008"
       y2="-13.2"
       gradientUnits="userSpaceOnUse"
       gradientTransform="translate(0,26.2)" />
  </defs>
  <path
     style="fill:url(#linearGradient7)"
     d="m 4.0006635,10 v 1 9 0 c -0.5203637,0.02153 -1.0229638,0.505476 -0.999899,1 h 0.00195 c -4.69e-5,0.004 -0.00195,0.008 -0.00195,0.01172 V 56 c 0.00871,0.999392 0.9801138,2.005992 1.999798,2 v 0 H 58.995109 v 0 c 1.011732,0.02205 1.994216,-0.972534 1.999798,-2 V 21.011719 21 17 c 0.05936,-0.589244 -0.407896,-1.006383 -0.999899,-1 v -4 c 0,-0.003 -0.002,0.004 -0.002,0 h 0.002 v 0 c -0.0061,-1.000671 -0.953819,-1.995969 -1.999798,-2 H 31.997836 L 27.99824,6 H 8.0002595 C 5.9630216,5.99492 4.0363539,7.9703236 4.0006635,10 Z"
     class="ColorScheme-Accent"
     id="path1" />
  <path
     style="fill:url(#linearGradient10);fill-opacity:1"
     d="m 4.0302775,10 -0.029614,1 v 9 H 21.998846 l 3.999596,-4 h 33.996566 v -4 c 0,-0.003 -0.002,0.004 -0.002,0 h 0.002 C 59.988808,10.988725 58.990992,9.994319 57.99521,10 H 31.997836 L 27.99824,6 H 8.0002595 C 5.9928069,6.0026 3.994256,8.0072 4.0302775,10 Z"
     id="path2" />
  <path
     style="fill:#ffffff;fill-opacity:0.2"
     d="m 27.99824,6 2.999697,5 h 1.999798 24.997475 c 1.212814,-0.06389 2.005543,1.005906 1.999798,2 v -1 c 6e-4,-0.992592 -0.988601,-1.993446 -1.999798,-2 H 32.997735 31.997836 Z m -1.999798,10 -3.999596,4 H 3.0007645 v 1 H 22.998745 Z"
     id="path3" />
  <path
     style="fill-opacity:0.2"
     d="m 25.998442,16 -5.999394,3 H 4.101 L 4.0006635,20 H 21.998846 Z M 3.0007645,56 c 0.00641,1.008598 0.9937008,2.001463 1.999798,2 v 0 H 58.995109 v 0 0 c 1.002828,0.0016 2.001139,-0.999662 1.999798,-2 z"
     class="ColorScheme-Text"
     id="path4"
     sodipodi:nodetypes="cccccccscccscc" />
  <path
     d="m 38.796128,39.109676 c -0.13647,-0.427552 -0.345247,-0.828631 -0.625672,-1.203236 -0.280962,-0.374189 -0.629818,-0.706546 -1.046922,-0.996931 -0.417345,-0.290118 -0.906567,-0.519232 -1.467965,-0.687527 -0.224999,-0.06079 -0.620761,-0.156528 -1.14205,-0.286494 -0.372587,-0.09256 -0.721883,-0.187519 -1.115635,-0.284244 v -4.719896 c 0.393737,0.107075 0.667289,0.276853 0.959283,0.465649 0.624702,0.403573 1.016393,1.093983 1.131147,2.031512 h 3.026365 c -0.0284,-0.803589 -0.203434,-1.46254 -0.524818,-2.054506 -0.353084,-0.649264 -0.830241,-1.206447 -1.43194,-1.649857 -0.601563,-0.442957 -1.322357,-0.780818 -2.116501,-1.002493 -0.344918,-0.09611 -0.649742,-0.176974 -1.043477,-0.231403 v -1.490477 h -2.800011 v 1.480698 c -0.306286,0.04658 -0.662722,0.109153 -0.981142,0.189744 -0.75435,0.19121 -1.416972,0.485195 -2.01036,0.882347 -0.593743,0.397531 -1.065433,0.897877 -1.426446,1.501241 -0.361097,0.603709 -0.538626,1.317888 -0.538626,2.142905 0,0.427901 0.0614,0.847913 0.181702,1.260515 0.120301,0.412572 0.325545,0.802125 0.614366,1.16883 0.288871,0.366721 0.67789,0.699046 1.167548,0.996991 0.489255,0.297888 1.080839,0.538584 1.818943,0.721943 0.406294,0.104629 0.823817,0.202421 1.17382,0.293557 v 5.338776 c -0.481176,-0.130322 -0.957563,-0.33031 -1.342099,-0.601765 -0.401173,-0.282463 -0.702889,-0.622909 -0.927403,-1.066271 -0.208948,-0.412025 -0.309582,-0.916366 -0.324072,-1.452085 h -3.006327 c 0.03002,0.937517 0.229692,1.76316 0.598156,2.471968 0.38493,0.741284 0.898325,1.337543 1.540157,1.810849 0.641492,0.473809 1.373471,0.81949 2.239946,1.048734 0.388597,0.102811 0.827995,0.176765 1.221754,0.233494 v 1.577985 h 2.800019 v -1.541982 c 0.437506,-0.04775 0.829377,-0.120099 1.248074,-0.217836 0.818157,-0.19075 1.559462,-0.492683 2.201326,-0.905202 0.641466,-0.412521 1.164661,-0.943234 1.557975,-1.59293 0.392865,-0.649171 0.592593,-1.432398 0.592593,-2.34913 5.2e-5,-0.4276 -0.06567,-0.855544 -0.201777,-1.283458 z m -8.198196,-4.176748 c -0.525014,-0.16711 -1.046159,-0.405733 -1.402218,-0.716444 -0.377161,-0.328334 -0.554479,-0.782793 -0.554479,-1.363651 0,-0.412573 0.105729,-0.756277 0.306438,-1.031364 0.200436,-0.275032 0.433663,-0.492782 0.738497,-0.653187 0.270399,-0.142374 0.605504,-0.248447 0.911759,-0.318662 z m 5.201965,6.686402 c -0.12857,0.297927 -0.33681,0.561434 -0.625752,0.790706 -0.28884,0.229156 -0.688792,0.416427 -1.153996,0.561469 -0.196882,0.06154 -0.359787,0.109077 -0.622265,0.144461 v -4.781798 c 0.437498,0.117107 0.795379,0.238036 1.151778,0.362983 0.352694,0.122491 0.688978,0.332269 0.985988,0.630174 0.296864,0.298006 0.451017,0.760291 0.451017,1.386638 6.1e-5,0.30578 -0.05855,0.607379 -0.186766,0.905345 z"
     id="path25907-1-5-7"
     style="fill:#e5e5e5;fill-opacity:1;stroke-width:0.044643" />
</svg>
