<?xml version="1.0" encoding="UTF-8" standalone="no"?>
<svg
   viewBox="0 0 64 64"
   version="1.1"
   id="svg4"
   sodipodi:docname="folder-virtualbox.svg"
   inkscape:version="1.4.3 (unknown)"
   xmlns:inkscape="http://www.inkscape.org/namespaces/inkscape"
   xmlns:sodipodi="http://sodipodi.sourceforge.net/DTD/sodipodi-0.dtd"
   xmlns:xlink="http://www.w3.org/1999/xlink"
   xmlns="http://www.w3.org/2000/svg"
   xmlns:svg="http://www.w3.org/2000/svg">
  <sodipodi:namedview
     id="namedview4"
     pagecolor="#ffffff"
     bordercolor="#000000"
     borderopacity="0.25"
     inkscape:showpageshadow="2"
     inkscape:pageopacity="0.0"
     inkscape:pagecheckerboard="0"
     inkscape:deskcolor="#d1d1d1"
     showgrid="false"
     inkscape:zoom="8.3306018"
     inkscape:cx="25.028204"
     inkscape:cy="29.40964"
     inkscape:window-width="1920"
     inkscape:window-height="994"
     inkscape:window-x="0"
     inkscape:window-y="0"
     inkscape:window-maximized="1"
     inkscape:current-layer="svg4">
    <inkscape:grid
       id="grid8"
       units="px"
       originx="0"
       originy="0"
       spacingx="1"
       spacingy="1"
       empcolor="#0099e5"
       empopacity="0.30196078"
       color="#0099e5"
       opacity="0.14902"
       empspacing="5"
       enabled="true"
       visible="false" />
  </sodipodi:namedview>
  <defs
     id="defs3051">
    <linearGradient
       id="linearGradient9"
       inkscape:collect="always">
      <stop
         style="stop-color:#00a489;stop-opacity:1;"
         offset="0"
         id="stop9" />
      <stop
         style="stop-color:#006453;stop-opacity:1;"
         offset="1"
         id="stop10" />
    </linearGradient>
    <linearGradient
       id="linearGradient8"
       inkscape:collect="always">
      <stop
         style="stop-color:#004c5a;stop-opacity:1;"
         offset="0"
         id="stop7" />
      <stop
         style="stop-color:#00a5be;stop-opacity:1;"
         offset="1"
         id="stop8" />
    </linearGradient>
    <style
       type="text/css"
       id="current-color-scheme">
      .ColorScheme-Text {
      color:#232629;
      }
      .ColorScheme-Accent {
      color:#3daee9;
      }
    </style>
    <linearGradient
       inkscape:collect="always"
       xlink:href="#linearGradient8"
       id="linearGradient7"
       x1="22.998745"
       y1="21"
       x2="50"
       y2="70"
       gradientUnits="userSpaceOnUse" />
    <linearGradient
       inkscape:collect="always"
       xlink:href="#linearGradient9"
       id="linearGradient10"
       x1="4.0006635"
       y1="-13.2"
       x2="59.995008"
       y2="-13.2"
       gradientUnits="userSpaceOnUse"
       gradientTransform="translate(0,26.2)" />
  </defs>
  <path
     style="fill:url(#linearGradient7)"
     d="m 4.0006635,10 v 1 9 0 c -0.5203637,0.02153 -1.0229638,0.505476 -0.999899,1 h 0.00195 c -4.69e-5,0.004 -0.00195,0.008 -0.00195,0.01172 V 56 c 0.00871,0.999392 0.9801138,2.005992 1.999798,2 v 0 H 58.995109 v 0 c 1.011732,0.02205 1.994216,-0.972534 1.999798,-2 V 21.011719 21 17 c 0.05936,-0.589244 -0.407896,-1.006383 -0.999899,-1 v -4 c 0,-0.003 -0.002,0.004 -0.002,0 h 0.002 v 0 c -0.0061,-1.000671 -0.953819,-1.995969 -1.999798,-2 H 31.997836 L 27.99824,6 H 8.0002595 C 5.9630216,5.99492 4.0363539,7.9703236 4.0006635,10 Z"
     class="ColorScheme-Accent"
     id="path1" />
  <path
     style="fill:url(#linearGradient10);fill-opacity:1"
     d="m 4.0302775,10 -0.029614,1 v 9 H 21.998846 l 3.999596,-4 h 33.996566 v -4 c 0,-0.003 -0.002,0.004 -0.002,0 h 0.002 C 59.988808,10.988725 58.990992,9.994319 57.99521,10 H 31.997836 L 27.99824,6 H 8.0002595 C 5.9928069,6.0026 3.994256,8.0072 4.0302775,10 Z"
     id="path2" />
  <path
     style="fill:#ffffff;fill-opacity:0.2"
     d="m 27.99824,6 2.999697,5 h 1.999798 24.997475 c 1.212814,-0.06389 2.005543,1.005906 1.999798,2 v -1 c 6e-4,-0.992592 -0.988601,-1.993446 -1.999798,-2 H 32.997735 31.997836 Z m -1.999798,10 -3.999596,4 H 3.0007645 v 1 H 22.998745 Z"
     id="path3" />
  <path
     style="fill-opacity:0.2"
     d="m 25.998442,16 -5.999394,3 H 4.101 L 4.0006635,20 H 21.998846 Z M 3.0007645,56 c 0.00641,1.008598 0.9937008,2.001463 1.999798,2 v 0 H 58.995109 v 0 0 c 1.002828,0.0016 2.001139,-0.999662 1.999798,-2 z"
     class="ColorScheme-Text"
     id="path4"
     sodipodi:nodetypes="cccccccscccscc" />
  <path
     d="m 34.305507,28.946149 -2.307671,8.053852 H 42.481523 V 31.83786 c 0,-0.854219 -0.360579,-1.626283 -0.937467,-2.151629 -0.243399,-0.223862 -0.518312,-0.40179 -0.815811,-0.525641 -0.333522,-0.141875 -0.72568,-0.214557 -1.08622,-0.214557 h -5.336569 z m 2.028203,2.740993 h 3.344314 c 0.05862,0 0.108198,0.05237 0.108198,0.109918 v 2.466844 h -4.187193 z"
     fill="#163578"
     id="path1-3"
     style="fill:#e5e5e5;fill-opacity:0.70432693;fill-rule:nonzero;stroke-width:0.991" />
  <path
     d="m 19.404847,28.946149 4.984928,17.811604 c 0.126169,0.443082 0.23887,0.676134 0.40563,0.922845 0.05862,0.09134 0.12617,0.173277 0.193801,0.255844 a 2.6236318,2.6591953 0 0 0 0.567913,0.511688 c 0.23439,0.159895 0.468714,0.278514 0.734666,0.365151 0.310959,0.100546 0.585916,0.132531 0.955515,0.132531 h 4.160072 l 1.843463,-6.459486 h 6.535309 v 3.60888 c 0,0.05926 -0.04939,0.109888 -0.108161,0.109888 h -4.691945 l -0.784239,2.740939 h 5.43562 c 0.739189,0 1.379204,-0.265141 1.874978,-0.708044 0.594925,-0.529704 0.96904,-1.279154 0.96904,-2.179075 V 39.74561 H 31.21355 l -1.843406,6.459494 H 27.039955 L 22.978931,31.687242 h 2.807978 l 1.487377,5.312854 h 2.803447 l -2.253531,-8.053852 z"
     fill="#3360b6"
     id="path2-3"
     style="fill:#e6e6e6;fill-opacity:1;fill-rule:nonzero;stroke-width:0.991" />
</svg>
