<?xml version="1.0" encoding="UTF-8" standalone="no"?>
<svg
   viewBox="0 0 64 64"
   version="1.1"
   id="svg4"
   sodipodi:docname="folder-build.svg"
   inkscape:version="1.4.3 (unknown)"
   xmlns:inkscape="http://www.inkscape.org/namespaces/inkscape"
   xmlns:sodipodi="http://sodipodi.sourceforge.net/DTD/sodipodi-0.dtd"
   xmlns:xlink="http://www.w3.org/1999/xlink"
   xmlns="http://www.w3.org/2000/svg"
   xmlns:svg="http://www.w3.org/2000/svg">
  <sodipodi:namedview
     id="namedview4"
     pagecolor="#ffffff"
     bordercolor="#000000"
     borderopacity="0.25"
     inkscape:showpageshadow="2"
     inkscape:pageopacity="0.0"
     inkscape:pagecheckerboard="0"
     inkscape:deskcolor="#d1d1d1"
     showgrid="false"
     inkscape:zoom="8.3306018"
     inkscape:cx="30.550014"
     inkscape:cy="42.25385"
     inkscape:window-width="1920"
     inkscape:window-height="994"
     inkscape:window-x="0"
     inkscape:window-y="0"
     inkscape:window-maximized="1"
     inkscape:current-layer="svg4">
    <inkscape:grid
       id="grid8"
       units="px"
       originx="0"
       originy="0"
       spacingx="1"
       spacingy="1"
       empcolor="#0099e5"
       empopacity="0.30196078"
       color="#0099e5"
       opacity="0.14902"
       empspacing="5"
       enabled="true"
       visible="false" />
  </sodipodi:namedview>
  <defs
     id="defs3051">
    <linearGradient
       id="linearGradient9"
       inkscape:collect="always">
      <stop
         style="stop-color:#00a489;stop-opacity:1;"
         offset="0"
         id="stop9" />
      <stop
         style="stop-color:#006453;stop-opacity:1;"
         offset="1"
         id="stop10" />
    </linearGradient>
    <linearGradient
       id="linearGradient8"
       inkscape:collect="always">
      <stop
         style="stop-color:#004c5a;stop-opacity:1;"
         offset="0"
         id="stop7" />
      <stop
         style="stop-color:#00a5be;stop-opacity:1;"
         offset="1"
         id="stop8" />
    </linearGradient>
    <style
       type="text/css"
       id="current-color-scheme">
      .ColorScheme-Text {
      color:#232629;
      }
      .ColorScheme-Accent {
      color:#3daee9;
      }
    </style>
    <linearGradient
       inkscape:collect="always"
       xlink:href="#linearGradient8"
       id="linearGradient7"
       x1="22.998745"
       y1="21"
       x2="50"
       y2="70"
       gradientUnits="userSpaceOnUse" />
    <linearGradient
       inkscape:collect="always"
       xlink:href="#linearGradient9"
       id="linearGradient10"
       x1="4.0006635"
       y1="-13.2"
       x2="59.995008"
       y2="-13.2"
       gradientUnits="userSpaceOnUse"
       gradientTransform="translate(0,26.2)" />
  </defs>
  <path
     style="fill:url(#linearGradient7)"
     d="m 4.0006635,10 v 1 9 0 c -0.5203637,0.02153 -1.0229638,0.505476 -0.999899,1 h 0.00195 c -4.69e-5,0.004 -0.00195,0.008 -0.00195,0.01172 V 56 c 0.00871,0.999392 0.9801138,2.005992 1.999798,2 v 0 H 58.995109 v 0 c 1.011732,0.02205 1.994216,-0.972534 1.999798,-2 V 21.011719 21 17 c 0.05936,-0.589244 -0.407896,-1.006383 -0.999899,-1 v -4 c 0,-0.003 -0.002,0.004 -0.002,0 h 0.002 v 0 c -0.0061,-1.000671 -0.953819,-1.995969 -1.999798,-2 H 31.997836 L 27.99824,6 H 8.0002595 C 5.9630216,5.99492 4.0363539,7.9703236 4.0006635,10 Z"
     class="ColorScheme-Accent"
     id="path1" />
  <path
     style="fill:url(#linearGradient10);fill-opacity:1"
     d="m 4.0302775,10 -0.029614,1 v 9 H 21.998846 l 3.999596,-4 h 33.996566 v -4 c 0,-0.003 -0.002,0.004 -0.002,0 h 0.002 C 59.988808,10.988725 58.990992,9.994319 57.99521,10 H 31.997836 L 27.99824,6 H 8.0002595 C 5.9928069,6.0026 3.994256,8.0072 4.0302775,10 Z"
     id="path2" />
  <path
     style="fill:#ffffff;fill-opacity:0.2"
     d="m 27.99824,6 2.999697,5 h 1.999798 24.997475 c 1.212814,-0.06389 2.005543,1.005906 1.999798,2 v -1 c 6e-4,-0.992592 -0.988601,-1.993446 -1.999798,-2 H 32.997735 31.997836 Z m -1.999798,10 -3.999596,4 H 3.0007645 v 1 H 22.998745 Z"
     id="path3" />
  <path
     style="fill-opacity:0.2"
     d="m 25.998442,16 -5.999394,3 H 4.101 L 4.0006635,20 H 21.998846 Z M 3.0007645,56 c 0.00641,1.008598 0.9937008,2.001463 1.999798,2 v 0 H 58.995109 v 0 0 c 1.002828,0.0016 2.001139,-0.999662 1.999798,-2 z"
     class="ColorScheme-Text"
     id="path4"
     sodipodi:nodetypes="cccccccscccscc" />
  <path
     style="color:#232629;fill:#e5e5e5;fill-opacity:1;stroke:none;stroke-width:0.908857"
     d="m 39.035197,26.530501 -0.282237,0.96388 c -0.57802,-0.04817 -1.160336,0.01554 -1.714745,0.186387 l -0.481038,-0.880462 -1.595813,0.87158 0.481041,0.880442 c -0.444419,0.374451 -0.811923,0.829379 -1.08458,1.341969 l -0.960323,-0.280452 -0.511225,1.743138 0.96388,0.282238 c -0.04817,0.578018 0.01366,1.162118 0.184603,1.716509 l -0.880443,0.481058 0.871564,1.595813 0.880459,-0.482842 c 0.374431,0.444436 0.831143,0.813704 1.343734,1.086361 l -0.282239,0.960331 1.744924,0.511217 0.282238,-0.96386 c 0.578018,0.04817 1.160334,-0.01561 1.714745,-0.186387 l 0.482822,0.880442 1.594029,-0.87158 -0.481057,-0.880442 c 0.444435,-0.374433 0.811939,-0.829379 1.084596,-1.341969 l 0.960311,0.280472 0.511237,-1.743138 -0.963881,-0.282238 c 0.04817,-0.578038 -0.01367,-1.162118 -0.184602,-1.716529 l 0.880443,-0.481038 -0.871579,-1.595813 -0.880444,0.482822 c -0.374434,-0.444431 -0.831143,-0.813704 -1.343734,-1.086361 l 0.282238,-0.960322 z m -0.898189,1.86207 c 0.180366,-0.01167 0.36238,-0.01 0.543182,0.0059 0.241041,0.02024 0.481511,0.06399 0.717135,0.133132 0.907025,0.266293 1.675422,0.875348 2.140759,1.698765 0.483509,0.854316 0.601129,1.869271 0.324846,2.811747 -0.266304,0.90703 -0.875355,1.675434 -1.698779,2.140763 -0.854313,0.483506 -1.869258,0.601132 -2.811734,0.324842 -0.907034,-0.266292 -1.677207,-0.875348 -2.142544,-1.698765 -0.483509,-0.854316 -0.601129,-1.869274 -0.324849,-2.811748 0.266307,-0.907029 0.875358,-1.675431 1.698766,-2.140763 0.480551,-0.271972 1.01208,-0.428053 1.553218,-0.463297 z m -12.115023,2.655545 -1.80881,0.177503 0.09762,0.999373 c -0.55441,0.170865 -1.070473,0.445869 -1.521259,0.811223 l -0.777493,-0.637247 -1.153818,1.404092 0.775729,0.637253 c -0.272657,0.5135 -0.442333,1.074589 -0.504138,1.652616 l -0.995824,0.09761 0.177504,1.80881 0.999373,-0.09762 c 0.170863,0.554405 0.445867,1.070467 0.811222,1.521253 l -0.637246,0.777494 1.404092,1.153817 0.637266,-0.775723 c 0.513486,0.272652 1.074584,0.442328 1.652602,0.504133 l 0.09762,0.995824 1.80881,-0.177504 -0.0976,-0.999373 c 0.554391,-0.170863 1.070453,-0.445868 1.521239,-0.811222 l 0.777493,0.637246 1.153817,-1.404092 -0.775708,-0.637262 c 0.272637,-0.51349 0.442314,-1.074587 0.504118,-1.652606 l 0.995824,-0.09762 -0.177503,-1.80881 -0.999374,0.0976 c -0.170844,-0.554392 -0.445848,-1.070454 -0.811202,-1.52124 l 0.637247,-0.777493 -1.404092,-1.153817 -0.637252,0.775713 C 27.258731,32.27542 26.697646,32.105743 26.119615,32.043939 Z m -0.02482,1.895797 c 0.696205,0.06701 1.36403,0.335118 1.918879,0.777494 0.76797,0.612552 1.255408,1.508977 1.350832,2.486903 0.09275,0.941561 -0.185867,1.882013 -0.775709,2.621817 -0.612555,0.76797 -1.510761,1.255409 -2.488683,1.350833 -0.941565,0.09275 -1.880233,-0.185868 -2.620037,-0.775709 -0.76797,-0.612558 -1.255409,-1.510762 -1.350838,-2.488688 -0.09275,-0.941561 0.185873,-1.880228 0.775714,-2.620033 0.612553,-0.76797 1.508977,-1.255409 2.486904,-1.350843 0.235395,-0.02324 0.470864,-0.0241 0.702938,-0.002 z m 7.831698,3.619406 v 1.004708 c -0.568925,0.116344 -1.109604,0.340415 -1.594029,0.660346 l -0.710037,-0.710037 -1.285161,1.285162 0.710037,0.710036 c -0.320827,0.484408 -0.546649,1.025088 -0.663897,1.594029 h -1.001137 v 1.817694 h 1.004688 c 0.116343,0.568941 0.340434,1.109623 0.660345,1.594044 l -0.710037,0.710041 1.285161,1.285162 0.710037,-0.710037 c 0.484425,0.320827 1.025104,0.546637 1.594029,0.663876 v 1.001158 h 1.817705 v -1.004708 c 0.56893,-0.116324 1.109612,-0.340415 1.594037,-0.660326 l 0.710037,0.710037 1.285162,-1.285162 -0.710037,-0.710041 c 0.320827,-0.484421 0.546634,-1.025103 0.663888,-1.594044 h 1.001145 V 41.107563 H 39.186094 C 39.069761,40.538622 38.84567,39.997942 38.525759,39.513534 l 0.710037,-0.710036 -1.285162,-1.285162 -0.710037,0.710037 c -0.484428,-0.320827 -1.02511,-0.546657 -1.594035,-0.663896 v -1.001158 z m 0.908857,1.817713 c 0.946115,0 1.854148,0.368857 2.533064,1.027768 0.704354,0.68437 1.102323,1.625155 1.102323,2.60762 0,0.946099 -0.368856,1.854148 -1.027769,2.533044 -0.684369,0.704374 -1.625153,1.102343 -2.607618,1.102343 -0.946119,0 -1.85415,-0.368861 -2.533064,-1.027787 -0.704355,-0.68435 -1.102324,-1.625135 -1.102324,-2.6076 0,-0.946119 0.368857,-1.854149 1.027768,-2.533064 0.684369,-0.704354 1.625155,-1.102324 2.60762,-1.102324 z"
     class="ColorScheme-Text"
     id="path12" />
</svg>
