<?xml version="1.0" encoding="UTF-8" standalone="no"?>
<svg
   viewBox="0 0 64 64"
   version="1.1"
   id="svg4"
   sodipodi:docname="folder-sign.svg"
   inkscape:version="1.4.3 (unknown)"
   xmlns:inkscape="http://www.inkscape.org/namespaces/inkscape"
   xmlns:sodipodi="http://sodipodi.sourceforge.net/DTD/sodipodi-0.dtd"
   xmlns:xlink="http://www.w3.org/1999/xlink"
   xmlns="http://www.w3.org/2000/svg"
   xmlns:svg="http://www.w3.org/2000/svg">
  <sodipodi:namedview
     id="namedview4"
     pagecolor="#ffffff"
     bordercolor="#000000"
     borderopacity="0.25"
     inkscape:showpageshadow="2"
     inkscape:pageopacity="0.0"
     inkscape:pagecheckerboard="0"
     inkscape:deskcolor="#d1d1d1"
     showgrid="false"
     inkscape:zoom="8.3306018"
     inkscape:cx="21.126925"
     inkscape:cy="35.051489"
     inkscape:window-width="1920"
     inkscape:window-height="994"
     inkscape:window-x="0"
     inkscape:window-y="0"
     inkscape:window-maximized="1"
     inkscape:current-layer="svg4">
    <inkscape:grid
       id="grid8"
       units="px"
       originx="0"
       originy="0"
       spacingx="1"
       spacingy="1"
       empcolor="#0099e5"
       empopacity="0.30196078"
       color="#0099e5"
       opacity="0.14902"
       empspacing="5"
       enabled="true"
       visible="false" />
  </sodipodi:namedview>
  <defs
     id="defs3051">
    <linearGradient
       id="linearGradient9"
       inkscape:collect="always">
      <stop
         style="stop-color:#00a489;stop-opacity:1;"
         offset="0"
         id="stop9" />
      <stop
         style="stop-color:#006453;stop-opacity:1;"
         offset="1"
         id="stop10" />
    </linearGradient>
    <linearGradient
       id="linearGradient8"
       inkscape:collect="always">
      <stop
         style="stop-color:#004c5a;stop-opacity:1;"
         offset="0"
         id="stop7" />
      <stop
         style="stop-color:#00a5be;stop-opacity:1;"
         offset="1"
         id="stop8" />
    </linearGradient>
    <style
       type="text/css"
       id="current-color-scheme">
      .ColorScheme-Text {
      color:#232629;
      }
      .ColorScheme-Accent {
      color:#3daee9;
      }
    </style>
    <linearGradient
       inkscape:collect="always"
       xlink:href="#linearGradient8"
       id="linearGradient7"
       x1="22.998745"
       y1="21"
       x2="50"
       y2="70"
       gradientUnits="userSpaceOnUse" />
    <linearGradient
       inkscape:collect="always"
       xlink:href="#linearGradient9"
       id="linearGradient10"
       x1="4.0006635"
       y1="-13.2"
       x2="59.995008"
       y2="-13.2"
       gradientUnits="userSpaceOnUse"
       gradientTransform="translate(0,26.2)" />
  </defs>
  <path
     style="fill:url(#linearGradient7)"
     d="m 4.0006635,10 v 1 9 0 c -0.5203637,0.02153 -1.0229638,0.505476 -0.999899,1 h 0.00195 c -4.69e-5,0.004 -0.00195,0.008 -0.00195,0.01172 V 56 c 0.00871,0.999392 0.9801138,2.005992 1.999798,2 v 0 H 58.995109 v 0 c 1.011732,0.02205 1.994216,-0.972534 1.999798,-2 V 21.011719 21 17 c 0.05936,-0.589244 -0.407896,-1.006383 -0.999899,-1 v -4 c 0,-0.003 -0.002,0.004 -0.002,0 h 0.002 v 0 c -0.0061,-1.000671 -0.953819,-1.995969 -1.999798,-2 H 31.997836 L 27.99824,6 H 8.0002595 C 5.9630216,5.99492 4.0363539,7.9703236 4.0006635,10 Z"
     class="ColorScheme-Accent"
     id="path1" />
  <path
     style="fill:url(#linearGradient10);fill-opacity:1"
     d="m 4.0302775,10 -0.029614,1 v 9 H 21.998846 l 3.999596,-4 h 33.996566 v -4 c 0,-0.003 -0.002,0.004 -0.002,0 h 0.002 C 59.988808,10.988725 58.990992,9.994319 57.99521,10 H 31.997836 L 27.99824,6 H 8.0002595 C 5.9928069,6.0026 3.994256,8.0072 4.0302775,10 Z"
     id="path2" />
  <path
     style="fill:#ffffff;fill-opacity:0.2"
     d="m 27.99824,6 2.999697,5 h 1.999798 24.997475 c 1.212814,-0.06389 2.005543,1.005906 1.999798,2 v -1 c 6e-4,-0.992592 -0.988601,-1.993446 -1.999798,-2 H 32.997735 31.997836 Z m -1.999798,10 -3.999596,4 H 3.0007645 v 1 H 22.998745 Z"
     id="path3" />
  <path
     style="fill-opacity:0.2"
     d="m 25.998442,16 -5.999394,3 H 4.101 L 4.0006635,20 H 21.998846 Z M 3.0007645,56 c 0.00641,1.008598 0.9937008,2.001463 1.999798,2 v 0 H 58.995109 v 0 0 c 1.002828,0.0016 2.001139,-0.999662 1.999798,-2 z"
     class="ColorScheme-Text"
     id="path4"
     sodipodi:nodetypes="cccccccscccscc" />
  <path
     style="color:#232629;fill:#e5e5e5;fill-opacity:1;stroke:none;stroke-width:0.813735"
     d="m 40.068601,24.000035 c -0.113637,-0.0012 -0.230201,0.03 -0.340115,0.100128 -0.05866,0.04061 -0.313677,0.346322 -0.564217,0.680232 l -0.45614,0.613483 -0.165289,-0.112841 c -0.231331,-0.15255 -0.454547,-0.186299 -0.662753,-0.0922 -0.143899,0.06478 -0.481153,0.500193 -2.693922,3.442489 -1.396463,1.854908 -2.531997,3.387039 -2.528629,3.410715 0.0032,0.01968 0.569816,0.462529 1.255574,0.977443 l 1.253985,0.942473 1.64973,-2.198048 c 0.90798,-1.209245 1.663406,-2.187803 1.681512,-2.174215 0.0587,0.04391 0.165682,0.993238 0.144632,1.29849 -0.009,0.166512 -0.07078,0.465727 -0.135093,0.664343 -0.114804,0.354927 -0.127305,0.375729 -2.172622,3.108737 -1.131182,1.510916 -2.073039,2.79419 -2.089975,2.844909 -0.0485,0.139872 0.0059,0.401486 0.111255,0.551499 0.17693,0.252926 0.614555,0.332862 0.863006,0.152579 0.171642,-0.125247 4.222781,-5.578599 4.351597,-5.863053 0.376293,-0.811175 0.454207,-1.849906 0.216153,-2.871931 -0.09406,-0.405648 -0.217046,-0.795594 -0.336941,-1.0728 -0.03498,-0.07572 0.02316,-0.172531 0.402101,-0.681823 0.358054,-0.486156 0.440152,-0.62268 0.446602,-0.748579 0.01424,-0.267931 -0.06773,-0.41707 -0.330579,-0.621431 L 39.723716,26.159921 40.210052,25.5067 c 0.398666,-0.540248 0.484861,-0.681519 0.491106,-0.807385 0.01803,-0.401274 -0.291648,-0.695657 -0.632557,-0.6993 z m -8.19302,9.0592 c -0.01188,0.0018 -1.499919,1.978833 -3.308996,4.388158 -2.909681,3.879757 -3.32353,4.454034 -3.591893,4.947595 -0.533156,0.982627 -1.113352,2.4807 -1.498749,3.849368 -0.249806,0.877824 -0.262359,0.79839 0.08583,0.611895 1.073983,-0.580048 2.476874,-1.521648 3.293111,-2.213944 0.79814,-0.677745 0.934033,-0.850065 4.315038,-5.352878 l 3.251783,-4.335699 -1.263526,-0.948839 c -0.694935,-0.521797 -1.270656,-0.947348 -1.282594,-0.945656 z m 0.365545,10.041418 c -0.15969,-0.0096 -0.324106,-0.0044 -0.430706,0.0174 v 0.0017 c -0.505332,0.1066 -1.068017,0.544443 -1.339808,1.04896 -0.07327,0.131011 -0.189821,0.427849 -0.262238,0.651627 -0.06842,0.227847 -0.131803,0.41788 -0.136689,0.422763 -0.03907,0.04878 -1.00545,0.280616 -1.57344,0.37826 -1.335343,0.233545 -1.6999,0.320588 -1.83091,0.441837 -0.257141,0.237611 -0.05786,0.476917 0.306737,0.370316 0.09685,-0.02936 0.509594,-0.111242 0.907517,-0.179596 0.398725,-0.06843 1.005131,-0.194471 1.349339,-0.271774 0.345026,-0.08212 0.636979,-0.137026 0.651632,-0.122381 0.01455,0.01455 -0.0431,0.291168 -0.135099,0.616663 l -0.165289,0.583282 -0.365547,0.160525 c -0.199362,0.08707 -0.485195,0.237584 -0.635737,0.340119 -0.456502,0.301083 -0.544709,0.679318 -0.224093,0.921811 0.174952,0.131016 0.660468,0.126247 0.961552,-0.0053 0.266898,-0.121252 0.417068,-0.290815 0.626193,-0.732684 0.111487,-0.228656 0.199466,-0.349302 0.267008,-0.363954 0.05362,-0.01455 0.535813,-0.111801 1.069623,-0.224095 0.534626,-0.106599 1.019683,-0.209458 1.082342,-0.224095 0.101713,-0.0245 0.111931,-0.01482 0.0826,0.07787 -0.01953,0.0586 -0.107491,0.229308 -0.20026,0.37985 -0.09199,0.150541 -0.165286,0.329678 -0.165286,0.402111 0,0.150541 0.127148,0.301296 0.228867,0.262233 0.03907,-0.01456 0.09163,-0.02861 0.116018,-0.02861 0.0245,0 0.131799,-0.07798 0.238398,-0.174819 0.199371,-0.179846 0.680232,-1.059741 0.680232,-1.244451 0,-0.092 0.07291,-0.115342 0.116025,-0.04293 0.01455,0.0245 0.125103,0.06854 0.246346,0.09696 0.17007,0.04391 0.219331,0.07684 0.219331,0.154165 0,0.150543 0.248371,0.370107 0.467266,0.413233 0.170074,0.02936 0.3887,-0.0054 0.62143,-0.101722 0.08212,-0.0342 0.08723,-0.0245 0.05873,0.101722 -0.01951,0.07813 -0.160971,0.326017 -0.311513,0.554666 -0.320614,0.476045 -0.708848,1.233425 -0.810568,1.568678 -0.08211,0.286433 -0.04878,0.500649 0.10172,0.602353 0.135895,0.08708 0.358849,0.04754 0.475211,-0.07939 0.101717,-0.111479 0.6564,-1.281207 0.859829,-1.815015 0.14566,-0.374332 0.213177,-0.476555 0.543559,-0.826466 0.271785,-0.286429 0.360561,-0.354651 0.301971,-0.243158 -0.09684,0.209124 -0.09231,0.368837 0.01429,0.465668 0.227846,0.209131 0.558272,0.0057 0.845524,-0.519717 0.170067,-0.310841 0.296706,-0.402279 0.928172,-0.6993 l 0.328989,-0.150983 -0.03334,0.17959 c -0.01953,0.09685 -0.13157,0.374276 -0.247937,0.611903 -0.22866,0.480912 -0.270986,0.78693 -0.135091,1.048949 0.09199,0.179834 0.188991,0.185621 0.635732,0.03012 0.621697,-0.209131 1.432613,-0.691226 1.643371,-0.9679 0.286436,-0.388969 0.374397,-0.762307 0.200261,-0.88844 -0.179841,-0.131009 -0.28152,-0.07776 -0.510181,0.257471 -0.305962,0.456511 -0.684406,0.811908 -1.048964,0.99174 -0.170069,0.08708 -0.320695,0.144982 -0.335347,0.130331 -0.01953,-0.01952 0.368612,-1.063687 0.576929,-1.554375 0.04391,-0.101714 0.07943,-0.228411 0.07943,-0.281313 0,-0.135888 -0.170619,-0.290838 -0.316285,-0.290838 -0.06843,0 -0.389818,0.130418 -0.710429,0.295613 -0.665635,0.330373 -0.621436,0.359451 -0.451372,-0.262244 0.101718,-0.383269 0.0683,-0.48576 -0.165292,-0.510173 -0.223777,-0.0245 -0.310699,0.0495 -0.51494,0.413221 -0.131011,0.247383 -0.305241,0.45204 -0.640508,0.762881 -0.441852,0.407682 -0.461679,0.422082 -0.564216,0.349655 -0.15542,-0.111482 -0.243036,-0.09661 -0.621425,0.09222 -0.369442,0.18471 -0.491334,0.209241 -0.583282,0.09696 -0.07812,-0.09199 0.04459,-0.140772 0.719971,-0.27178 0.655865,-0.126134 0.737446,-0.161303 0.737446,-0.297207 0,-0.218896 -0.180022,-0.426613 -0.500638,-0.567386 -0.554162,-0.247379 -0.61575,-0.26291 -0.85824,-0.200254 -0.262024,0.06843 -0.651189,0.441918 -0.704072,0.675466 -0.05362,0.243304 -0.21934,0.16995 -0.21934,-0.09696 0,-0.111483 -0.136437,-0.39302 -0.214554,-0.441842 -0.165187,-0.111477 -0.431487,0.131773 -0.635728,0.578519 l -0.160525,0.344896 -0.35919,0.07786 c -0.466268,0.101721 -1.821132,0.373474 -2.000976,0.408458 -0.11636,0.01954 -0.135666,0.0097 -0.111254,-0.05871 0.01949,-0.04878 0.07726,-0.261085 0.135101,-0.479979 0.150543,-0.602167 0.195139,-0.680799 0.413221,-0.75811 0.262033,-0.09199 1.146926,-0.471689 1.374779,-0.588047 0.1066,-0.05362 0.324438,-0.218309 0.484746,-0.363965 0.490679,-0.456511 0.567641,-0.879567 0.217738,-1.19041 -0.09685,-0.08211 -0.223534,-0.169484 -0.281312,-0.193894 -0.08958,-0.0342 -0.243998,-0.05776 -0.403685,-0.06668 z m -0.489514,0.567391 c 0.06744,-0.0041 0.14724,-0.0013 0.247939,0.0053 0.257141,0.01455 0.359874,0.03868 0.432299,0.116026 0.09684,0.09685 0.09661,0.101358 0.0096,0.28608 -0.05856,0.116361 -0.193886,0.253134 -0.363958,0.370314 -0.2962,0.204248 -1.224689,0.577717 -1.253984,0.510175 -0.03907,-0.111481 0.258595,-0.777728 0.448189,-0.991742 0.189205,-0.214829 0.277631,-0.284249 0.47998,-0.295618 z m -2.493667,4.067109 c 0.03708,0.0027 0.0377,0.03483 0.0069,0.09535 -0.06353,0.121246 -0.229093,0.209004 -0.321045,0.174824 -0.106601,-0.04391 -0.07789,-0.101245 0.0922,-0.189128 0.111889,-0.05582 0.185481,-0.08352 0.222506,-0.0811 z"
     class="ColorScheme-Text"
     id="path12" />
</svg>
