<?xml version="1.0" encoding="UTF-8" standalone="no"?>
<svg
   viewBox="0 0 64 64"
   version="1.1"
   id="svg4"
   sodipodi:docname="folder-godot.svg"
   inkscape:version="1.4.3 (unknown)"
   xmlns:inkscape="http://www.inkscape.org/namespaces/inkscape"
   xmlns:sodipodi="http://sodipodi.sourceforge.net/DTD/sodipodi-0.dtd"
   xmlns:xlink="http://www.w3.org/1999/xlink"
   xmlns="http://www.w3.org/2000/svg"
   xmlns:svg="http://www.w3.org/2000/svg">
  <sodipodi:namedview
     id="namedview4"
     pagecolor="#ffffff"
     bordercolor="#000000"
     borderopacity="0.25"
     inkscape:showpageshadow="2"
     inkscape:pageopacity="0.0"
     inkscape:pagecheckerboard="0"
     inkscape:deskcolor="#d1d1d1"
     showgrid="false"
     inkscape:zoom="8.3306018"
     inkscape:cx="19.626433"
     inkscape:cy="40.093142"
     inkscape:window-width="1920"
     inkscape:window-height="994"
     inkscape:window-x="0"
     inkscape:window-y="0"
     inkscape:window-maximized="1"
     inkscape:current-layer="svg4">
    <inkscape:grid
       id="grid8"
       units="px"
       originx="0"
       originy="0"
       spacingx="1"
       spacingy="1"
       empcolor="#0099e5"
       empopacity="0.30196078"
       color="#0099e5"
       opacity="0.14902"
       empspacing="5"
       enabled="true"
       visible="false" />
  </sodipodi:namedview>
  <defs
     id="defs3051">
    <linearGradient
       id="linearGradient9"
       inkscape:collect="always">
      <stop
         style="stop-color:#00a489;stop-opacity:1;"
         offset="0"
         id="stop9" />
      <stop
         style="stop-color:#006453;stop-opacity:1;"
         offset="1"
         id="stop10" />
    </linearGradient>
    <linearGradient
       id="linearGradient8"
       inkscape:collect="always">
      <stop
         style="stop-color:#004c5a;stop-opacity:1;"
         offset="0"
         id="stop7" />
      <stop
         style="stop-color:#00a5be;stop-opacity:1;"
         offset="1"
         id="stop8" />
    </linearGradient>
    <style
       type="text/css"
       id="current-color-scheme">
      .ColorScheme-Text {
      color:#232629;
      }
      .ColorScheme-Accent {
      color:#3daee9;
      }
    </style>
    <linearGradient
       inkscape:collect="always"
       xlink:href="#linearGradient8"
       id="linearGradient7"
       x1="22.998745"
       y1="21"
       x2="50"
       y2="70"
       gradientUnits="userSpaceOnUse" />
    <linearGradient
       inkscape:collect="always"
       xlink:href="#linearGradient9"
       id="linearGradient10"
       x1="4.0006635"
       y1="-13.2"
       x2="59.995008"
       y2="-13.2"
       gradientUnits="userSpaceOnUse"
       gradientTransform="translate(0,26.2)" />
  </defs>
  <path
     style="fill:url(#linearGradient7)"
     d="m 4.0006635,10 v 1 9 0 c -0.5203637,0.02153 -1.0229638,0.505476 -0.999899,1 h 0.00195 c -4.69e-5,0.004 -0.00195,0.008 -0.00195,0.01172 V 56 c 0.00871,0.999392 0.9801138,2.005992 1.999798,2 v 0 H 58.995109 v 0 c 1.011732,0.02205 1.994216,-0.972534 1.999798,-2 V 21.011719 21 17 c 0.05936,-0.589244 -0.407896,-1.006383 -0.999899,-1 v -4 c 0,-0.003 -0.002,0.004 -0.002,0 h 0.002 v 0 c -0.0061,-1.000671 -0.953819,-1.995969 -1.999798,-2 H 31.997836 L 27.99824,6 H 8.0002595 C 5.9630216,5.99492 4.0363539,7.9703236 4.0006635,10 Z"
     class="ColorScheme-Accent"
     id="path1" />
  <path
     style="fill:url(#linearGradient10);fill-opacity:1"
     d="m 4.0302775,10 -0.029614,1 v 9 H 21.998846 l 3.999596,-4 h 33.996566 v -4 c 0,-0.003 -0.002,0.004 -0.002,0 h 0.002 C 59.988808,10.988725 58.990992,9.994319 57.99521,10 H 31.997836 L 27.99824,6 H 8.0002595 C 5.9928069,6.0026 3.994256,8.0072 4.0302775,10 Z"
     id="path2" />
  <path
     style="fill:#ffffff;fill-opacity:0.2"
     d="m 27.99824,6 2.999697,5 h 1.999798 24.997475 c 1.212814,-0.06389 2.005543,1.005906 1.999798,2 v -1 c 6e-4,-0.992592 -0.988601,-1.993446 -1.999798,-2 H 32.997735 31.997836 Z m -1.999798,10 -3.999596,4 H 3.0007645 v 1 H 22.998745 Z"
     id="path3" />
  <path
     style="fill-opacity:0.2"
     d="m 25.998442,16 -5.999394,3 H 4.101 L 4.0006635,20 H 21.998846 Z M 3.0007645,56 c 0.00641,1.008598 0.9937008,2.001463 1.999798,2 v 0 H 58.995109 v 0 0 c 1.002828,0.0016 2.001139,-0.999662 1.999798,-2 z"
     class="ColorScheme-Text"
     id="path4"
     sodipodi:nodetypes="cccccccscccscc" />
  <path
     style="color:#232629;fill:#e5e5e5;fill-opacity:1;stroke-width:1.75824"
     d="m 29.841244,27.000001 c -0.96896,0.215409 -1.92758,0.512651 -2.82623,0.964972 0.0206,0.793514 0.0711,1.556002 0.17514,2.328297 -0.34899,0.223593 -0.71456,0.414766 -1.04052,0.67651 -0.33121,0.254801 -0.671949,0.49871 -0.97184,0.796704 -0.59914,-0.39628 -1.23204,-0.770174 -1.88531,-1.098901 -0.704169,0.757833 -1.36118,1.577833 -1.899037,2.493132 0.422699,0.663515 0.874764,1.330887 1.294643,1.850962 v 4.51923 0.57349 0.521978 c 0.0102,9.1e-5 0.02073,0.0025 0.03091,0.0035 l 3.444364,0.333104 c 0.1804,0.01741 0.32055,0.162638 0.33311,0.343408 l 0.10646,1.517856 3.004811,0.216347 0.20604,-1.404533 c 0.0268,-0.181918 0.18344,-0.315935 0.36745,-0.315935 h 3.63324 c 0.18391,0 0.34061,0.134013 0.36744,0.315935 l 0.20605,1.404533 3.0048,-0.216347 0.10647,-1.517856 c 0.0127,-0.180777 0.1527,-0.325901 0.3331,-0.343408 l 3.44436,-0.333104 c 0.0102,-9.51e-4 0.0206,-0.0033 0.0309,-0.0035 v -0.446429 -5.168269 c 0.48494,-0.610498 0.94281,-1.284392 1.29463,-1.850962 -0.53766,-0.915299 -1.19486,-1.735299 -1.89903,-2.493132 -0.65308,0.328727 -1.28617,0.702621 -1.88531,1.098901 -0.2998,-0.297994 -0.64016,-0.541903 -0.97184,-0.796704 -0.32587,-0.261744 -0.69219,-0.452917 -1.04052,-0.67651 0.1037,-0.772295 0.1545,-1.534783 0.17514,-2.328297 -0.89875,-0.45232 -1.8568,-0.749563 -2.82624,-0.964972 -0.38705,0.650509 -0.73912,1.354607 -1.04739,2.043269 -0.36555,-0.06108 -0.7346,-0.08491 -1.10233,-0.08928 -0.003,0 -0.005,0 -0.007,0 -0.002,0 -0.005,0 -0.007,0 -0.36841,0.0044 -0.73669,0.0282 -1.10234,0.08928 -0.30801,-0.688662 -0.6597,-1.39276 -1.04733,-2.043269 z m -2.72664,8.21772 c 1.14631,0 2.07761,0.928244 2.07761,2.074176 0,1.146692 -0.931299,2.074175 -2.077609,2.074175 -1.14574,0 -2.07418,-0.927483 -2.07418,-2.074175 0,-1.145932 0.92844,-2.074176 2.074179,-2.074176 z m 9.76648,0 c 1.14565,0 2.07418,0.928244 2.07418,2.074176 0,1.146692 -0.92853,2.074175 -2.07418,2.074175 -1.1465,0 -2.07761,-0.927483 -2.07761,-2.074175 0,-1.145932 0.93111,-2.074176 2.07761,-2.074176 z m -14.199862,6.153846 c 0.0014,0.332817 0.0069,0.696634 0.0069,0.76923 0,3.270529 4.148292,4.841126 9.302882,4.859204 h 0.007 0.007 c 5.1546,-0.01808 9.30289,-1.588675 9.30289,-4.859204 0,-0.07393 0.002,-0.436221 0.004,-0.76923 l -3.0941,0.298764 -0.10646,1.52816 c -0.0128,0.1842 -0.15921,0.33018 -0.3434,0.343405 l -3.66759,0.26099 c -0.009,6.65e-4 -0.0186,0 -0.0275,0 -0.18229,0 -0.34051,-0.13287 -0.36744,-0.315935 l -0.20968,-1.425137 h -2.994501 l -0.20948,1.425137 c -0.0283,0.192004 -0.20158,0.330112 -0.394919,0.315935 l -3.66753,-0.26099 c -0.184201,-0.01319 -0.330561,-0.159208 -0.343411,-0.343405 l -0.10646,-1.52816 z"
     id="path1-3" />
</svg>
