<?xml version="1.0" encoding="UTF-8" standalone="no"?>
<svg
   viewBox="0 0 64 64"
   version="1.1"
   id="svg4"
   sodipodi:docname="folder-design.svg"
   inkscape:version="1.4.3 (unknown)"
   xmlns:inkscape="http://www.inkscape.org/namespaces/inkscape"
   xmlns:sodipodi="http://sodipodi.sourceforge.net/DTD/sodipodi-0.dtd"
   xmlns:xlink="http://www.w3.org/1999/xlink"
   xmlns="http://www.w3.org/2000/svg"
   xmlns:svg="http://www.w3.org/2000/svg">
  <sodipodi:namedview
     id="namedview4"
     pagecolor="#ffffff"
     bordercolor="#000000"
     borderopacity="0.25"
     inkscape:showpageshadow="2"
     inkscape:pageopacity="0.0"
     inkscape:pagecheckerboard="0"
     inkscape:deskcolor="#d1d1d1"
     showgrid="false"
     inkscape:zoom="8.3306018"
     inkscape:cx="25.508361"
     inkscape:cy="48.856014"
     inkscape:window-width="1920"
     inkscape:window-height="994"
     inkscape:window-x="0"
     inkscape:window-y="0"
     inkscape:window-maximized="1"
     inkscape:current-layer="svg4">
    <inkscape:grid
       id="grid8"
       units="px"
       originx="0"
       originy="0"
       spacingx="1"
       spacingy="1"
       empcolor="#0099e5"
       empopacity="0.30196078"
       color="#0099e5"
       opacity="0.14902"
       empspacing="5"
       enabled="true"
       visible="false" />
  </sodipodi:namedview>
  <defs
     id="defs3051">
    <linearGradient
       id="linearGradient9"
       inkscape:collect="always">
      <stop
         style="stop-color:#00a489;stop-opacity:1;"
         offset="0"
         id="stop9" />
      <stop
         style="stop-color:#006453;stop-opacity:1;"
         offset="1"
         id="stop10" />
    </linearGradient>
    <linearGradient
       id="linearGradient8"
       inkscape:collect="always">
      <stop
         style="stop-color:#004c5a;stop-opacity:1;"
         offset="0"
         id="stop7" />
      <stop
         style="stop-color:#00a5be;stop-opacity:1;"
         offset="1"
         id="stop8" />
    </linearGradient>
    <style
       type="text/css"
       id="current-color-scheme">
      .ColorScheme-Text {
      color:#232629;
      }
      .ColorScheme-Accent {
      color:#3daee9;
      }
    </style>
    <linearGradient
       inkscape:collect="always"
       xlink:href="#linearGradient8"
       id="linearGradient7"
       x1="22.998745"
       y1="21"
       x2="50"
       y2="70"
       gradientUnits="userSpaceOnUse" />
    <linearGradient
       inkscape:collect="always"
       xlink:href="#linearGradient9"
       id="linearGradient10"
       x1="4.0006635"
       y1="-13.2"
       x2="59.995008"
       y2="-13.2"
       gradientUnits="userSpaceOnUse"
       gradientTransform="translate(0,26.2)" />
  </defs>
  <path
     style="fill:url(#linearGradient7)"
     d="m 4.0006635,10 v 1 9 0 c -0.5203637,0.02153 -1.0229638,0.505476 -0.999899,1 h 0.00195 c -4.69e-5,0.004 -0.00195,0.008 -0.00195,0.01172 V 56 c 0.00871,0.999392 0.9801138,2.005992 1.999798,2 v 0 H 58.995109 v 0 c 1.011732,0.02205 1.994216,-0.972534 1.999798,-2 V 21.011719 21 17 c 0.05936,-0.589244 -0.407896,-1.006383 -0.999899,-1 v -4 c 0,-0.003 -0.002,0.004 -0.002,0 h 0.002 v 0 c -0.0061,-1.000671 -0.953819,-1.995969 -1.999798,-2 H 31.997836 L 27.99824,6 H 8.0002595 C 5.9630216,5.99492 4.0363539,7.9703236 4.0006635,10 Z"
     class="ColorScheme-Accent"
     id="path1" />
  <path
     style="fill:url(#linearGradient10);fill-opacity:1"
     d="m 4.0302775,10 -0.029614,1 v 9 H 21.998846 l 3.999596,-4 h 33.996566 v -4 c 0,-0.003 -0.002,0.004 -0.002,0 h 0.002 C 59.988808,10.988725 58.990992,9.994319 57.99521,10 H 31.997836 L 27.99824,6 H 8.0002595 C 5.9928069,6.0026 3.994256,8.0072 4.0302775,10 Z"
     id="path2" />
  <path
     style="fill:#ffffff;fill-opacity:0.2"
     d="m 27.99824,6 2.999697,5 h 1.999798 24.997475 c 1.212814,-0.06389 2.005543,1.005906 1.999798,2 v -1 c 6e-4,-0.992592 -0.988601,-1.993446 -1.999798,-2 H 32.997735 31.997836 Z m -1.999798,10 -3.999596,4 H 3.0007645 v 1 H 22.998745 Z"
     id="path3" />
  <path
     style="fill-opacity:0.2"
     d="m 25.998442,16 -5.999394,3 H 4.101 L 4.0006635,20 H 21.998846 Z M 3.0007645,56 c 0.00641,1.008598 0.9937008,2.001463 1.999798,2 v 0 H 58.995109 v 0 0 c 1.002828,0.0016 2.001139,-0.999662 1.999798,-2 z"
     class="ColorScheme-Text"
     id="path4"
     sodipodi:nodetypes="cccccccscccscc" />
  <path
     style="color:#232629;fill:#e5e5e5;fill-opacity:1;stroke:none"
     d="m 31.963696,22.643532 c -0.50689,0 -0.921875,0.409126 -0.921875,0.916016 v 0.83789 c -1.633394,0.41943 -2.808594,1.868131 -2.808594,3.609375 0,1.21888 0.581934,2.303638 1.490234,2.986328 0.09669,0.114271 0.15625,0.258772 0.15625,0.419922 0,0.04688 4.1e-5,0.09277 -0.0059,0.136719 l -4.037109,8.556641 H 24.16678 c -0.27249,0 -0.496094,0.219697 -0.496094,0.492187 v 0.002 c 0,0.27249 0.223604,0.492188 0.496094,0.492188 h 1.205078 L 22.25467,47.70022 c -0.19631,0.41899 -0.09867,0.903287 0.208985,1.216797 l -1.201172,2.439453 1.898437,-2.056641 c 0.50396,0.13185 1.042945,-0.108347 1.271485,-0.591797 l 3.59375,-7.615234 h 3.158203 v 0.654297 c 0,0.41606 0.338822,0.751953 0.757812,0.751953 h 0.04102 c 0.41899,0 0.759766,-0.335893 0.759766,-0.751953 v -0.654297 h 3.230468 l 3.591797,7.615234 c 0.22561,0.48638 0.768501,0.723647 1.269531,0.591797 l 1.898438,2.056641 -1.197266,-2.439453 c 0.30472,-0.31351 0.403342,-0.794877 0.207032,-1.216797 l -3.117188,-6.607422 h 1.13086 c 0.275419,0 0.496093,-0.219698 0.496093,-0.492188 0,-0.27249 -0.220674,-0.49124 -0.496093,-0.49414 h -1.595704 l -4.035156,-8.556641 c -0.0059,-0.04395 -0.0059,-0.08984 -0.0059,-0.136719 0,-0.15822 0.05858,-0.305651 0.152343,-0.419922 0.9083,-0.68269 1.494141,-1.767448 1.494141,-2.986328 0,-1.765071 -1.230465,-3.23164 -2.882812,-3.628906 v -0.818359 c 0,-0.50689 -0.410102,-0.916016 -0.919922,-0.916016 z m 0.876953,3.378906 c 0.777175,0.326475 1.322266,1.091537 1.322266,1.984375 0,1.18958 -0.96667,2.154297 -2.16211,2.154297 -1.2013,0 -2.162109,-0.964717 -2.162109,-2.154297 0,-0.863919 0.513565,-1.604318 1.253906,-1.947265 0.10977,0.381986 0.449564,0.667969 0.871094,0.667969 0.432436,-10e-7 0.779293,-0.303272 0.876953,-0.705079 z m -0.857422,7.154297 h 0.01758 0.01758 c 0.1172,0 0.220696,0.05468 0.285156,0.136719 l 3.205079,6.792969 h -2.765625 v -0.794922 c 0,-0.41899 -0.340776,-0.75586 -0.759766,-0.75586 h -0.04102 c -0.41899,10e-7 -0.757812,0.3398 -0.757812,0.75586 v 0.794922 h -2.69336 l 3.205079,-6.792969 c 0.06739,-0.08497 0.169909,-0.136719 0.287109,-0.136719 z"
     class="ColorScheme-Text"
     id="path144" />
</svg>
