<?xml version="1.0" encoding="UTF-8" standalone="no"?>
<svg
   viewBox="0 0 64 64"
   version="1.1"
   id="svg4"
   sodipodi:docname="folder-relax.svg"
   inkscape:version="1.4.3 (unknown)"
   xmlns:inkscape="http://www.inkscape.org/namespaces/inkscape"
   xmlns:sodipodi="http://sodipodi.sourceforge.net/DTD/sodipodi-0.dtd"
   xmlns:xlink="http://www.w3.org/1999/xlink"
   xmlns="http://www.w3.org/2000/svg"
   xmlns:svg="http://www.w3.org/2000/svg">
  <sodipodi:namedview
     id="namedview4"
     pagecolor="#ffffff"
     bordercolor="#000000"
     borderopacity="0.25"
     inkscape:showpageshadow="2"
     inkscape:pageopacity="0.0"
     inkscape:pagecheckerboard="0"
     inkscape:deskcolor="#d1d1d1"
     showgrid="false"
     inkscape:zoom="8.3306018"
     inkscape:cx="25.388322"
     inkscape:cy="36.491962"
     inkscape:window-width="1920"
     inkscape:window-height="994"
     inkscape:window-x="0"
     inkscape:window-y="0"
     inkscape:window-maximized="1"
     inkscape:current-layer="svg4">
    <inkscape:grid
       id="grid8"
       units="px"
       originx="0"
       originy="0"
       spacingx="1"
       spacingy="1"
       empcolor="#0099e5"
       empopacity="0.30196078"
       color="#0099e5"
       opacity="0.14902"
       empspacing="5"
       enabled="true"
       visible="false" />
  </sodipodi:namedview>
  <defs
     id="defs3051">
    <linearGradient
       id="linearGradient9"
       inkscape:collect="always">
      <stop
         style="stop-color:#00a489;stop-opacity:1;"
         offset="0"
         id="stop9" />
      <stop
         style="stop-color:#006453;stop-opacity:1;"
         offset="1"
         id="stop10" />
    </linearGradient>
    <linearGradient
       id="linearGradient8"
       inkscape:collect="always">
      <stop
         style="stop-color:#004c5a;stop-opacity:1;"
         offset="0"
         id="stop7" />
      <stop
         style="stop-color:#00a5be;stop-opacity:1;"
         offset="1"
         id="stop8" />
    </linearGradient>
    <style
       type="text/css"
       id="current-color-scheme">
      .ColorScheme-Text {
      color:#232629;
      }
      .ColorScheme-Accent {
      color:#3daee9;
      }
    </style>
    <linearGradient
       inkscape:collect="always"
       xlink:href="#linearGradient8"
       id="linearGradient7"
       x1="22.998745"
       y1="21"
       x2="50"
       y2="70"
       gradientUnits="userSpaceOnUse" />
    <linearGradient
       inkscape:collect="always"
       xlink:href="#linearGradient9"
       id="linearGradient10"
       x1="4.0006635"
       y1="-13.2"
       x2="59.995008"
       y2="-13.2"
       gradientUnits="userSpaceOnUse"
       gradientTransform="translate(0,26.2)" />
  </defs>
  <path
     style="fill:url(#linearGradient7)"
     d="m 4.0006635,10 v 1 9 0 c -0.5203637,0.02153 -1.0229638,0.505476 -0.999899,1 h 0.00195 c -4.69e-5,0.004 -0.00195,0.008 -0.00195,0.01172 V 56 c 0.00871,0.999392 0.9801138,2.005992 1.999798,2 v 0 H 58.995109 v 0 c 1.011732,0.02205 1.994216,-0.972534 1.999798,-2 V 21.011719 21 17 c 0.05936,-0.589244 -0.407896,-1.006383 -0.999899,-1 v -4 c 0,-0.003 -0.002,0.004 -0.002,0 h 0.002 v 0 c -0.0061,-1.000671 -0.953819,-1.995969 -1.999798,-2 H 31.997836 L 27.99824,6 H 8.0002595 C 5.9630216,5.99492 4.0363539,7.9703236 4.0006635,10 Z"
     class="ColorScheme-Accent"
     id="path1" />
  <path
     style="fill:url(#linearGradient10);fill-opacity:1"
     d="m 4.0302775,10 -0.029614,1 v 9 H 21.998846 l 3.999596,-4 h 33.996566 v -4 c 0,-0.003 -0.002,0.004 -0.002,0 h 0.002 C 59.988808,10.988725 58.990992,9.994319 57.99521,10 H 31.997836 L 27.99824,6 H 8.0002595 C 5.9928069,6.0026 3.994256,8.0072 4.0302775,10 Z"
     id="path2" />
  <path
     style="fill:#ffffff;fill-opacity:0.2"
     d="m 27.99824,6 2.999697,5 h 1.999798 24.997475 c 1.212814,-0.06389 2.005543,1.005906 1.999798,2 v -1 c 6e-4,-0.992592 -0.988601,-1.993446 -1.999798,-2 H 32.997735 31.997836 Z m -1.999798,10 -3.999596,4 H 3.0007645 v 1 H 22.998745 Z"
     id="path3" />
  <path
     style="fill-opacity:0.2"
     d="m 25.998442,16 -5.999394,3 H 4.101 L 4.0006635,20 H 21.998846 Z M 3.0007645,56 c 0.00641,1.008598 0.9937008,2.001463 1.999798,2 v 0 H 58.995109 v 0 0 c 1.002828,0.0016 2.001139,-0.999662 1.999798,-2 z"
     class="ColorScheme-Text"
     id="path4"
     sodipodi:nodetypes="cccccccscccscc" />
  <g
     id="g1"
     transform="matrix(1.0417495,0,0,1,12.559644,0.75036898)"
     style="fill:#e5e5e5;fill-opacity:1">
    <path
       d="m 18.446671,26.622017 c -0.618919,1.635619 -2.785038,7.942432 -2.785038,8.148673 0,0.309376 2.770273,8.281229 2.932394,8.458117 0.05897,0.05876 0.825182,-1.812343 1.694578,-4.155245 l 1.57669,-4.273446 -1.57669,-4.243795 c -0.854665,-2.328107 -1.591422,-4.273148 -1.620919,-4.302639 -0.02974,-0.03236 -0.117871,0.132784 -0.220877,0.368766 z"
       id="path4-1-8-9"
       style="fill:#e5e5e5;fill-opacity:1;stroke:none;stroke-width:0.014736"
       inkscape:connector-curvature="0" />
    <path
       d="m 9.030656,34.814976 c 0.01458,0.103693 0.663129,1.547234 1.444094,3.197598 l 1.429354,3.020659 3.079717,1.443958 c 1.694558,0.795931 3.123932,1.414513 3.168145,1.370295 0.04473,-0.04854 -0.604159,-1.443938 -1.429369,-3.094202 L 15.219573,37.732573 12.125136,36.185271 C 10.401082,35.316014 9.030656,34.71196 9.030656,34.814976 Z"
       id="path6-1-9-3"
       style="fill:#e5e5e5;fill-opacity:1;stroke:none;stroke-width:0.014736"
       inkscape:connector-curvature="0" />
    <path
       d="m 25.166051,36.170429 -3.094449,1.517974 -1.517743,3.064881 c -0.839947,1.67962 -1.488301,3.079691 -1.444089,3.123908 0.02972,0.04854 1.458812,-0.574631 3.153413,-1.38516 l 3.094436,-1.444052 1.503016,-3.153381 c 0.810446,-1.72417 1.473549,-3.168059 1.444111,-3.182639 -0.02975,-0.03236 -1.444111,0.633429 -3.138695,1.458469 z"
       id="path8-5-0-9"
       style="fill:#e5e5e5;fill-opacity:1;stroke:none;stroke-width:0.014736"
       inkscape:connector-curvature="0" />
    <path
       d="m 10.577891,43.435214 c -1.2967305,0.442193 -2.4166296,0.869257 -2.475562,0.913543 -0.058903,0.05876 1.0167439,0.515618 2.401896,1.001861 l 2.505046,0.899013 2.505002,-0.899013 c 1.385164,-0.487003 2.460836,-0.942852 2.40191,-1.001861 -0.08839,-0.0885 -4.892183,-1.783131 -4.965878,-1.738868 -0.01452,0 -1.075678,0.368766 -2.372414,0.825325 z"
       id="path10-9-6-0"
       style="fill:#e5e5e5;fill-opacity:1;stroke:none;stroke-width:0.014736"
       inkscape:connector-curvature="0" />
    <path
       d="m 21.747415,43.464635 c -1.31146,0.456775 -2.41662,0.869162 -2.460831,0.913429 -0.04473,0.04854 1.060957,0.486477 2.44609,0.972554 l 2.519779,0.899013 2.49033,-0.884117 c 1.355652,-0.486462 2.475559,-0.928372 2.475559,-0.98745 0,-0.07348 -4.361726,-1.591236 -4.936395,-1.709047 -0.07373,-0.01618 -1.223088,0.339064 -2.534532,0.795618 z"
       id="path12-8-8-8"
       style="fill:#e5e5e5;fill-opacity:1;stroke:none;stroke-width:0.014736"
       inkscape:connector-curvature="0" />
  </g>
</svg>
