<?xml version="1.0" encoding="UTF-8" standalone="no"?>
<svg
   viewBox="0 0 64 64"
   version="1.1"
   id="svg4"
   sodipodi:docname="folder-rpm.svg"
   inkscape:version="1.4.3 (unknown)"
   xmlns:inkscape="http://www.inkscape.org/namespaces/inkscape"
   xmlns:sodipodi="http://sodipodi.sourceforge.net/DTD/sodipodi-0.dtd"
   xmlns:xlink="http://www.w3.org/1999/xlink"
   xmlns="http://www.w3.org/2000/svg"
   xmlns:svg="http://www.w3.org/2000/svg">
  <sodipodi:namedview
     id="namedview4"
     pagecolor="#ffffff"
     bordercolor="#000000"
     borderopacity="0.25"
     inkscape:showpageshadow="2"
     inkscape:pageopacity="0.0"
     inkscape:pagecheckerboard="0"
     inkscape:deskcolor="#d1d1d1"
     showgrid="false"
     inkscape:zoom="8.3306018"
     inkscape:cx="18.906197"
     inkscape:cy="39.492945"
     inkscape:window-width="1920"
     inkscape:window-height="994"
     inkscape:window-x="0"
     inkscape:window-y="0"
     inkscape:window-maximized="1"
     inkscape:current-layer="svg4">
    <inkscape:grid
       id="grid8"
       units="px"
       originx="0"
       originy="0"
       spacingx="1"
       spacingy="1"
       empcolor="#0099e5"
       empopacity="0.30196078"
       color="#0099e5"
       opacity="0.14902"
       empspacing="5"
       enabled="true"
       visible="false" />
  </sodipodi:namedview>
  <defs
     id="defs3051">
    <linearGradient
       id="linearGradient9"
       inkscape:collect="always">
      <stop
         style="stop-color:#ff2535;stop-opacity:1;"
         offset="0"
         id="stop9" />
      <stop
         style="stop-color:#aa072f;stop-opacity:1;"
         offset="1"
         id="stop10" />
    </linearGradient>
    <linearGradient
       id="linearGradient8"
       inkscape:collect="always">
      <stop
         style="stop-color:#eb0a42;stop-opacity:1;"
         offset="0"
         id="stop7" />
      <stop
         style="stop-color:#cf000f;stop-opacity:1;"
         offset="1"
         id="stop8" />
    </linearGradient>
    <style
       type="text/css"
       id="current-color-scheme">
      .ColorScheme-Text {
      color:#232629;
      }
      .ColorScheme-Accent {
      color:#3daee9;
      }
    </style>
    <linearGradient
       inkscape:collect="always"
       xlink:href="#linearGradient8"
       id="linearGradient7"
       x1="22.998745"
       y1="21"
       x2="50"
       y2="70"
       gradientUnits="userSpaceOnUse" />
    <linearGradient
       inkscape:collect="always"
       xlink:href="#linearGradient9"
       id="linearGradient10"
       x1="4.0006635"
       y1="-13.2"
       x2="59.995008"
       y2="-13.2"
       gradientUnits="userSpaceOnUse"
       gradientTransform="translate(0,26.2)" />
  </defs>
  <path
     style="fill:url(#linearGradient7)"
     d="m 4.0006635,10 v 1 9 0 c -0.5203637,0.02153 -1.0229638,0.505476 -0.999899,1 h 0.00195 c -4.69e-5,0.004 -0.00195,0.008 -0.00195,0.01172 V 56 c 0.00871,0.999392 0.9801138,2.005992 1.999798,2 v 0 H 58.995109 v 0 c 1.011732,0.02205 1.994216,-0.972534 1.999798,-2 V 21.011719 21 17 c 0.05936,-0.589244 -0.407896,-1.006383 -0.999899,-1 v -4 c 0,-0.003 -0.002,0.004 -0.002,0 h 0.002 v 0 c -0.0061,-1.000671 -0.953819,-1.995969 -1.999798,-2 H 31.997836 L 27.99824,6 H 8.0002595 C 5.9630216,5.99492 4.0363539,7.9703236 4.0006635,10 Z"
     class="ColorScheme-Accent"
     id="path1" />
  <path
     style="fill:url(#linearGradient10);fill-opacity:1"
     d="m 4.0302775,10 -0.029614,1 v 9 H 21.998846 l 3.999596,-4 h 33.996566 v -4 c 0,-0.003 -0.002,0.004 -0.002,0 h 0.002 C 59.988808,10.988725 58.990992,9.994319 57.99521,10 H 31.997836 L 27.99824,6 H 8.0002595 C 5.9928069,6.0026 3.994256,8.0072 4.0302775,10 Z"
     id="path2" />
  <path
     style="fill:#ffffff;fill-opacity:0.2"
     d="m 27.99824,6 2.999697,5 h 1.999798 24.997475 c 1.212814,-0.06389 2.005543,1.005906 1.999798,2 v -1 c 6e-4,-0.992592 -0.988601,-1.993446 -1.999798,-2 H 32.997735 31.997836 Z m -1.999798,10 -3.999596,4 H 3.0007645 v 1 H 22.998745 Z"
     id="path3" />
  <path
     style="fill-opacity:0.2"
     d="m 25.998442,16 -5.999394,3 H 4.101 L 4.0006635,20 H 21.998846 Z M 3.0007645,56 c 0.00641,1.008598 0.9937008,2.001463 1.999798,2 v 0 H 58.995109 v 0 0 c 1.002828,0.0016 2.001139,-0.999662 1.999798,-2 z"
     class="ColorScheme-Text"
     id="path4"
     sodipodi:nodetypes="cccccccscccscc" />
  <path
     style="color:#232629;fill:currentColor;fill-opacity:0.6;stroke:none"
     d="m 31.517071,29.517806 c -5.56998,0.238889 -10.16697,4.734583 -10.5,10.5 -0.08829,1.518649 0.13041,2.98508 0.593705,4.337338 l 0.941337,-0.337613 c -0.420649,-1.228726 -0.615351,-2.560383 -0.535117,-3.940146 0.325956,-5.605908 5.058668,-9.881957 10.571477,-9.550485 5.512809,0.33146 9.717833,5.146083 9.391877,10.75199 -0.0327,0.562094 -0.120612,1.106362 -0.238263,1.638418 l 0.972583,0.230372 c 0.130191,-0.587219 0.227575,-1.188691 0.263653,-1.80921 0.358553,-6.166496 -4.267183,-11.461789 -10.33126,-11.826397 -0.379006,-0.02279 -0.755538,-0.02586 -1.126869,-0.01 z m 1.009689,2.04157 c -0.807629,-0.04555 -1.617662,0.01976 -2.408023,0.194624 l 0.18358,1.000924 c 0.710037,-0.160524 1.437595,-0.220338 2.163901,-0.180723 4.410251,0.265175 7.773882,4.114501 7.513111,8.59921 -0.0217,0.339402 -0.06509,0.676984 -0.128896,1.010854 l 1.001878,0.06157 c 0.0602,-0.334389 0.103725,-0.671726 0.126944,-1.010854 0.293368,-5.045318 -3.490965,-9.377278 -8.452495,-9.6756 z m -5.001579,1.203491 c -1.60688,0.933881 -2.890079,2.348109 -3.67746,4.051361 l 0.869075,0.526279 c 0.686019,-1.536707 1.82525,-2.81898 3.259523,-3.668069 z m 4.59536,6.118747 c -0.953356,0.03492 -1.909269,0.700153 -2.003757,1.771475 -0.06519,1.121188 0.776208,2.082514 1.878766,2.14881 0.738435,0.04403 1.439402,-0.328672 1.824083,-0.971135 -0.008,0.01362 -0.01574,0.02629 -0.02344,0.03972 l 7.800201,2.637353 0.31443,-0.965177 -7.802153,-2.637356 v -0.01192 c -0.08482,-1.451082 -1.034775,-2.046698 -1.988132,-2.011777 z m -8.999329,0.345556 c -0.0523,0.306711 -0.08806,0.616919 -0.109367,0.927444 -0.0177,0.33933 -0.0186,0.677542 0,1.016812 l 1.009691,0.06157 c -0.0254,-0.339179 -0.02832,-0.679052 -0.01172,-1.018799 0.0149,-0.239561 0.04017,-0.479689 0.07616,-0.716931 z m 9.050106,0.530251 c 0.55129,0.03315 0.971981,0.513816 0.939384,1.074405 -0.0326,0.560568 -0.505284,0.988395 -1.056562,0.955247 -0.551289,-0.03315 -0.971981,-0.513816 -0.939383,-1.074404 0.0326,-0.560599 0.505282,-0.988396 1.056561,-0.955248 z"
     class="ColorScheme-Text"
     id="path5" />
</svg>
