<?xml version="1.0" encoding="UTF-8" standalone="no"?>
<svg
   viewBox="0 0 64 64"
   version="1.1"
   id="svg4"
   sodipodi:docname="folder-openSUSE.svg"
   inkscape:version="1.4.3 (unknown)"
   xmlns:inkscape="http://www.inkscape.org/namespaces/inkscape"
   xmlns:sodipodi="http://sodipodi.sourceforge.net/DTD/sodipodi-0.dtd"
   xmlns:xlink="http://www.w3.org/1999/xlink"
   xmlns="http://www.w3.org/2000/svg"
   xmlns:svg="http://www.w3.org/2000/svg">
  <sodipodi:namedview
     id="namedview4"
     pagecolor="#ffffff"
     bordercolor="#000000"
     borderopacity="0.25"
     inkscape:showpageshadow="2"
     inkscape:pageopacity="0.0"
     inkscape:pagecheckerboard="0"
     inkscape:deskcolor="#d1d1d1"
     showgrid="false"
     inkscape:zoom="8.3306018"
     inkscape:cx="26.108558"
     inkscape:cy="30.850112"
     inkscape:window-width="1920"
     inkscape:window-height="994"
     inkscape:window-x="0"
     inkscape:window-y="0"
     inkscape:window-maximized="1"
     inkscape:current-layer="svg4">
    <inkscape:grid
       id="grid8"
       units="px"
       originx="0"
       originy="0"
       spacingx="1"
       spacingy="1"
       empcolor="#0099e5"
       empopacity="0.30196078"
       color="#0099e5"
       opacity="0.14902"
       empspacing="5"
       enabled="true"
       visible="false" />
  </sodipodi:namedview>
  <defs
     id="defs3051">
    <linearGradient
       id="linearGradient9"
       inkscape:collect="always">
      <stop
         style="stop-color:#00a489;stop-opacity:1;"
         offset="0"
         id="stop9" />
      <stop
         style="stop-color:#006453;stop-opacity:1;"
         offset="1"
         id="stop10" />
    </linearGradient>
    <linearGradient
       id="linearGradient8"
       inkscape:collect="always">
      <stop
         style="stop-color:#004c5a;stop-opacity:1;"
         offset="0"
         id="stop7" />
      <stop
         style="stop-color:#00a5be;stop-opacity:1;"
         offset="1"
         id="stop8" />
    </linearGradient>
    <style
       type="text/css"
       id="current-color-scheme">
      .ColorScheme-Text {
      color:#232629;
      }
      .ColorScheme-Accent {
      color:#3daee9;
      }
    </style>
    <linearGradient
       inkscape:collect="always"
       xlink:href="#linearGradient8"
       id="linearGradient7"
       x1="22.998745"
       y1="21"
       x2="50"
       y2="70"
       gradientUnits="userSpaceOnUse" />
    <linearGradient
       inkscape:collect="always"
       xlink:href="#linearGradient9"
       id="linearGradient10"
       x1="4.0006635"
       y1="-13.2"
       x2="59.995008"
       y2="-13.2"
       gradientUnits="userSpaceOnUse"
       gradientTransform="translate(0,26.2)" />
  </defs>
  <path
     style="fill:url(#linearGradient7)"
     d="m 4.0006635,10 v 1 9 0 c -0.5203637,0.02153 -1.0229638,0.505476 -0.999899,1 h 0.00195 c -4.69e-5,0.004 -0.00195,0.008 -0.00195,0.01172 V 56 c 0.00871,0.999392 0.9801138,2.005992 1.999798,2 v 0 H 58.995109 v 0 c 1.011732,0.02205 1.994216,-0.972534 1.999798,-2 V 21.011719 21 17 c 0.05936,-0.589244 -0.407896,-1.006383 -0.999899,-1 v -4 c 0,-0.003 -0.002,0.004 -0.002,0 h 0.002 v 0 c -0.0061,-1.000671 -0.953819,-1.995969 -1.999798,-2 H 31.997836 L 27.99824,6 H 8.0002595 C 5.9630216,5.99492 4.0363539,7.9703236 4.0006635,10 Z"
     class="ColorScheme-Accent"
     id="path1" />
  <path
     style="fill:url(#linearGradient10);fill-opacity:1"
     d="m 4.0302775,10 -0.029614,1 v 9 H 21.998846 l 3.999596,-4 h 33.996566 v -4 c 0,-0.003 -0.002,0.004 -0.002,0 h 0.002 C 59.988808,10.988725 58.990992,9.994319 57.99521,10 H 31.997836 L 27.99824,6 H 8.0002595 C 5.9928069,6.0026 3.994256,8.0072 4.0302775,10 Z"
     id="path2" />
  <path
     style="fill:#ffffff;fill-opacity:0.2"
     d="m 27.99824,6 2.999697,5 h 1.999798 24.997475 c 1.212814,-0.06389 2.005543,1.005906 1.999798,2 v -1 c 6e-4,-0.992592 -0.988601,-1.993446 -1.999798,-2 H 32.997735 31.997836 Z m -1.999798,10 -3.999596,4 H 3.0007645 v 1 H 22.998745 Z"
     id="path3" />
  <path
     style="fill-opacity:0.2"
     d="m 25.998442,16 -5.999394,3 H 4.101 L 4.0006635,20 H 21.998846 Z M 3.0007645,56 c 0.00641,1.008598 0.9937008,2.001463 1.999798,2 v 0 H 58.995109 v 0 0 c 1.002828,0.0016 2.001139,-0.999662 1.999798,-2 z"
     class="ColorScheme-Text"
     id="path4"
     sodipodi:nodetypes="cccccccscccscc" />
  <path
     style="color:#4d4d4d;font-size:20.4884px;font-family:TrebuchetMS-Bold;fill:#e5e5e5;fill-opacity:1;fill-rule:evenodd;stroke:none;stroke-width:0.143179;stroke-miterlimit:4"
     d="m 31.997836,27.000001 c -5.52242,0 -10,4.47706 -10,10 0,5.52294 4.47758,10 10,10 5.52242,0 10,-4.47706 10,-10 0,-5.52294 -4.47758,-10 -10,-10 z m 0.0479,1.38489 c 4.75828,0 8.61879,3.85735 8.61879,8.61511 0,4.75826 -3.86103,8.61511 -8.61879,8.61511 -2.56927,0 -4.87475,-1.12606 -6.45303,-2.90976 0.64895,-0.50367 1.73468,-0.38079 3.07182,-0.22837 0.64079,0.0728 1.37127,0.15628 2.12523,0.1731 2.1064,0.0122 4.37282,-0.3722 5.77165,-0.98342 0.90433,-0.3966 1.48335,-0.65779 1.84529,-0.9871 0.13051,-0.10709 0.19904,-0.2859 0.26889,-0.47145 l 0.0479,-0.12524 c 0.0586,-0.14987 0.14276,-0.47238 0.18047,-0.64825 0.0168,-0.077 0.0252,-0.15976 -0.0295,-0.20258 l -0.19521,0.0368 c -0.61378,0.36806 -2.14724,1.06906 -3.5838,1.0976 -1.78014,0.0373 -5.36799,-1.79205 -5.74217,-1.98526 l -0.0368,-0.0442 c -0.0897,-0.21411 -0.62665,-1.48876 -0.74034,-1.75691 2.58254,1.70063 4.72368,2.64192 6.36466,2.78822 1.82448,0.16211 3.24767,-0.834 3.85634,-1.25967 0.11878,-0.0811 0.20956,-0.14461 0.24678,-0.15838 l 0.0405,-0.0663 c -0.10093,-0.6413 -1.05818,-3.74457 -1.77901,-4.48987 -0.19984,-0.20442 -0.35871,-0.40336 -0.6814,-0.593 -2.60904,-1.52067 -8.80386,-2.43651 -9.09392,-2.47883 l -0.0479,0.0147 -0.0184,0.0405 c 0,0 -0.0233,1.28636 -0.0258,1.4291 -0.21258,-0.0703 -0.87173,-0.28616 -1.81585,-0.54512 1.23187,-1.52424 3.11969,-2.87662 6.42358,-2.87662 z m 2.27625,4.55987 c 0.044,-6.7e-4 0.0883,-10e-4 0.1326,0 1.46153,0.0525 2.60981,1.28349 2.55985,2.74401 -0.026,0.70655 -0.32389,1.35937 -0.83978,1.84162 -0.51742,0.4848 -1.18993,0.73748 -1.90056,0.71455 -1.45898,-0.0545 -2.60725,-1.28554 -2.55984,-2.74401 0.025,-0.70758 0.3245,-1.36459 0.84345,-1.84531 0.48461,-0.4545 1.10485,-0.70098 1.76428,-0.71086 z m -0.07,0.78084 c -0.42566,0.0259 -0.82734,0.19872 -1.1418,0.49356 -0.35838,0.33645 -0.56983,0.79198 -0.58563,1.28544 -0.0337,1.01956 0.76414,1.87757 1.78268,1.91528 0.49499,0.0153 0.96454,-0.15811 1.32597,-0.49354 0.36041,-0.33798 0.57034,-0.79772 0.58563,-1.28914 0.0341,-1.02108 -0.76733,-1.87592 -1.78637,-1.9116 -0.0617,-0.002 -0.11967,-0.003 -0.18048,0 z m 0.48619,0.92448 c 0.45268,0 0.81768,0.246 0.81767,0.54881 0,0.30129 -0.36499,0.5488 -0.81767,0.5488 -0.45421,0 -0.82136,-0.24803 -0.82136,-0.5488 0,-0.30281 0.36715,-0.54881 0.82136,-0.54881 z"
     id="path2445"
     class="ColorScheme-Text"
     inkscape:connector-curvature="0" />
</svg>
