<?xml version="1.0" encoding="UTF-8" standalone="no"?>
<svg
   viewBox="0 0 64 64"
   version="1.1"
   id="svg4"
   sodipodi:docname="folder-neon.svg"
   inkscape:version="1.4.3 (unknown)"
   xmlns:inkscape="http://www.inkscape.org/namespaces/inkscape"
   xmlns:sodipodi="http://sodipodi.sourceforge.net/DTD/sodipodi-0.dtd"
   xmlns:xlink="http://www.w3.org/1999/xlink"
   xmlns="http://www.w3.org/2000/svg"
   xmlns:svg="http://www.w3.org/2000/svg">
  <sodipodi:namedview
     id="namedview4"
     pagecolor="#ffffff"
     bordercolor="#000000"
     borderopacity="0.25"
     inkscape:showpageshadow="2"
     inkscape:pageopacity="0.0"
     inkscape:pagecheckerboard="0"
     inkscape:deskcolor="#d1d1d1"
     showgrid="false"
     inkscape:zoom="8.3306018"
     inkscape:cx="29.34962"
     inkscape:cy="39.733024"
     inkscape:window-width="1920"
     inkscape:window-height="994"
     inkscape:window-x="0"
     inkscape:window-y="0"
     inkscape:window-maximized="1"
     inkscape:current-layer="svg4">
    <inkscape:grid
       id="grid8"
       units="px"
       originx="0"
       originy="0"
       spacingx="1"
       spacingy="1"
       empcolor="#0099e5"
       empopacity="0.30196078"
       color="#0099e5"
       opacity="0.14902"
       empspacing="5"
       enabled="true"
       visible="false" />
  </sodipodi:namedview>
  <defs
     id="defs3051">
    <linearGradient
       id="linearGradient9"
       inkscape:collect="always">
      <stop
         style="stop-color:#00a489;stop-opacity:1;"
         offset="0"
         id="stop9" />
      <stop
         style="stop-color:#006453;stop-opacity:1;"
         offset="1"
         id="stop10" />
    </linearGradient>
    <linearGradient
       id="linearGradient8"
       inkscape:collect="always">
      <stop
         style="stop-color:#004c5a;stop-opacity:1;"
         offset="0"
         id="stop7" />
      <stop
         style="stop-color:#00a5be;stop-opacity:1;"
         offset="1"
         id="stop8" />
    </linearGradient>
    <style
       type="text/css"
       id="current-color-scheme">
      .ColorScheme-Text {
      color:#232629;
      }
      .ColorScheme-Accent {
      color:#3daee9;
      }
    </style>
    <linearGradient
       inkscape:collect="always"
       xlink:href="#linearGradient8"
       id="linearGradient7"
       x1="22.998745"
       y1="21"
       x2="50"
       y2="70"
       gradientUnits="userSpaceOnUse" />
    <linearGradient
       inkscape:collect="always"
       xlink:href="#linearGradient9"
       id="linearGradient10"
       x1="4.0006635"
       y1="-13.2"
       x2="59.995008"
       y2="-13.2"
       gradientUnits="userSpaceOnUse"
       gradientTransform="translate(0,26.2)" />
  </defs>
  <path
     style="fill:url(#linearGradient7)"
     d="m 4.0006635,10 v 1 9 0 c -0.5203637,0.02153 -1.0229638,0.505476 -0.999899,1 h 0.00195 c -4.69e-5,0.004 -0.00195,0.008 -0.00195,0.01172 V 56 c 0.00871,0.999392 0.9801138,2.005992 1.999798,2 v 0 H 58.995109 v 0 c 1.011732,0.02205 1.994216,-0.972534 1.999798,-2 V 21.011719 21 17 c 0.05936,-0.589244 -0.407896,-1.006383 -0.999899,-1 v -4 c 0,-0.003 -0.002,0.004 -0.002,0 h 0.002 v 0 c -0.0061,-1.000671 -0.953819,-1.995969 -1.999798,-2 H 31.997836 L 27.99824,6 H 8.0002595 C 5.9630216,5.99492 4.0363539,7.9703236 4.0006635,10 Z"
     class="ColorScheme-Accent"
     id="path1" />
  <path
     style="fill:url(#linearGradient10);fill-opacity:1"
     d="m 4.0302775,10 -0.029614,1 v 9 H 21.998846 l 3.999596,-4 h 33.996566 v -4 c 0,-0.003 -0.002,0.004 -0.002,0 h 0.002 C 59.988808,10.988725 58.990992,9.994319 57.99521,10 H 31.997836 L 27.99824,6 H 8.0002595 C 5.9928069,6.0026 3.994256,8.0072 4.0302775,10 Z"
     id="path2" />
  <path
     style="fill:#ffffff;fill-opacity:0.2"
     d="m 27.99824,6 2.999697,5 h 1.999798 24.997475 c 1.212814,-0.06389 2.005543,1.005906 1.999798,2 v -1 c 6e-4,-0.992592 -0.988601,-1.993446 -1.999798,-2 H 32.997735 31.997836 Z m -1.999798,10 -3.999596,4 H 3.0007645 v 1 H 22.998745 Z"
     id="path3" />
  <path
     style="fill-opacity:0.2"
     d="m 25.998442,16 -5.999394,3 H 4.101 L 4.0006635,20 H 21.998846 Z M 3.0007645,56 c 0.00641,1.008598 0.9937008,2.001463 1.999798,2 v 0 H 58.995109 v 0 0 c 1.002828,0.0016 2.001139,-0.999662 1.999798,-2 z"
     class="ColorScheme-Text"
     id="path4"
     sodipodi:nodetypes="cccccccscccscc" />
  <g
     id="g1"
     transform="matrix(0.90909091,0,0,0.90909091,16.543292,5.1818191)"
     style="fill:#e5e5e5;fill-opacity:1">
    <path
       d="m 17,24 c -0.451267,0 -0.839305,0.254701 -1.030766,0.629054 -2.111102,0.206849 -4.034172,1.035906 -5.582903,2.305976 C 9.988031,26.810271 9.538476,26.90605 9.222218,27.222215 8.905985,27.538473 8.810272,27.988027 8.935045,28.38633 7.66496,29.935036 6.8342,31.858119 6.629063,33.969208 6.254713,34.160663 6,34.548748 6,35.000003 c 0,0.451251 0.254713,0.839335 0.629063,1.030787 0.206842,2.111069 1.035897,4.034188 2.305982,5.582845 -0.124773,0.398339 -0.02895,0.847907 0.287173,1.164112 0.316258,0.316234 0.765813,0.411991 1.164113,0.287216 1.548731,1.270068 3.471801,2.099076 5.582903,2.305898 C 16.160695,45.745262 16.548733,46 17,46 c 0.451283,0 0.839309,-0.256458 1.030773,-0.629139 2.111111,-0.206822 4.034199,-1.03583 5.58288,-2.305898 0.398328,0.124775 0.847881,0.02904 1.164118,-0.287216 0.316237,-0.316205 0.411959,-0.765773 0.287201,-1.164112 1.270047,-1.548657 2.100851,-3.471776 2.305962,-5.582845 0.372644,-0.191452 0.629063,-0.579536 0.629063,-1.030787 0,-0.451255 -0.256419,-0.83934 -0.629063,-1.030795 -0.205111,-2.111089 -1.035915,-4.034172 -2.305962,-5.582878 0.124758,-0.398303 0.029,-0.847857 -0.287201,-1.164115 -0.316237,-0.316233 -0.76579,-0.411944 -1.164118,-0.287185 -1.548681,-1.27007 -3.471769,-2.099127 -5.58288,-2.305976 C 17.839309,24.254701 17.451283,24 17,24 Z m 0,0.579483 c 0.321373,0 0.579485,0.258123 0.579485,0.579483 0,0.31966 -0.258112,0.577785 -0.579485,0.577785 -0.321373,0 -0.57948,-0.258125 -0.57948,-0.577785 0,-0.32136 0.258107,-0.579483 0.57948,-0.579483 z m -0.972629,1.208546 c 0.205112,0.317956 0.564089,0.528205 0.972629,0.528205 0.408544,0 0.767533,-0.210249 0.972645,-0.528205 1.83249,0.189763 3.502587,0.907698 4.854737,2.001702 -0.0821,0.372667 0.02209,0.777784 0.312809,1.070093 0.292305,0.2906 0.697418,0.394878 1.070071,0.312821 1.094004,1.352128 1.811944,3.022222 2.001711,4.85472 -0.317966,0.205089 -0.528224,0.564085 -0.528224,0.972638 0,0.408553 0.210258,0.767549 0.528224,0.97262 -0.189767,1.832471 -0.907707,3.502556 -2.001711,4.854755 -0.372653,-0.08202 -0.777766,0.02209 -1.070071,0.312813 -0.290598,0.29232 -0.394869,0.697413 -0.312809,1.070049 -1.35215,1.094027 -3.022247,1.811968 -4.854737,2.001732 C 17.767533,43.894021 17.408544,43.683725 17,43.683725 c -0.40854,0 -0.767517,0.210296 -0.972629,0.528247 -1.832499,-0.189764 -3.502585,-0.907705 -4.854725,-2.001732 0.08206,-0.372636 -0.02209,-0.777729 -0.31282,-1.070049 -0.292285,-0.290625 -0.697425,-0.394964 -1.07008,-0.312813 -1.094013,-1.352199 -1.811954,-3.022284 -2.001715,-4.854755 0.317954,-0.205071 0.528213,-0.564067 0.528213,-0.97262 0,-0.408553 -0.210259,-0.767549 -0.528213,-0.972638 0.189761,-1.832498 0.907702,-3.502592 2.001715,-4.85472 0.372655,0.08205 0.777795,-0.02209 1.07008,-0.312821 0.2906,-0.292309 0.39488,-0.697426 0.31282,-1.070093 1.35214,-1.094004 3.022226,-1.811939 4.854725,-2.001702 z m -5.986347,1.673511 c 0.14872,0 0.295742,0.05645 0.40855,0.169218 0.227357,0.227375 0.227357,0.593171 0,0.818814 -0.225638,0.227348 -0.591437,0.227348 -0.818816,0 -0.225606,-0.225643 -0.225606,-0.591439 0,-0.818814 0.114532,-0.11281 0.261556,-0.169218 0.410266,-0.169218 z m 13.917937,0 c 0.148755,0 0.295755,0.05645 0.410276,0.169218 0.22561,0.227375 0.22561,0.593171 0,0.818814 -0.227364,0.227348 -0.593171,0.227348 -0.818816,0 -0.227344,-0.225643 -0.227344,-0.591439 0,-0.818814 0.11286,-0.11281 0.259859,-0.169218 0.40854,-0.169218 z M 17,27.47354 c -0.461551,0 -0.85813,0.268372 -1.044433,0.656399 -3.350433,0.500861 -5.902572,3.376066 -5.902572,6.870117 0,3.493996 2.552139,6.369221 5.902572,6.870099 C 16.14187,42.25814 16.538449,42.52652 17,42.52652 c 0.461556,0 0.858125,-0.26838 1.04446,-0.656365 3.350412,-0.50088 5.902555,-3.376092 5.902555,-6.870097 0,-3.494051 -2.552143,-6.369256 -5.902555,-6.870117 C 17.858125,27.741914 17.461556,27.473542 17,27.473542 Z m 0,0.579485 c 0.321373,0 0.579485,0.258116 0.579485,0.579491 0,0.319659 -0.258112,0.577768 -0.579485,0.577768 -0.321373,0 -0.57948,-0.258109 -0.57948,-0.577768 0,-0.321375 0.258107,-0.579491 0.57948,-0.579491 z m -0.955543,1.23589 c 0.20855,0.302568 0.558966,0.500852 0.955543,0.500852 0.396587,0 0.74702,-0.198284 0.95555,-0.500852 2.748724,0.452992 4.834198,2.829068 4.834198,5.711141 0,2.882012 -2.085474,5.258052 -4.834198,5.71113 C 17.74702,40.408543 17.396587,40.210268 17,40.210268 c -0.396577,0 -0.746993,0.198275 -0.955543,0.500918 -2.748732,-0.453074 -4.834196,-2.829114 -4.834196,-5.711125 0,-2.882074 2.085464,-5.25815 4.834196,-5.711141 z m -8.885488,5.131652 c 0.31966,0 0.577784,0.258115 0.577784,0.579471 0,0.321358 -0.258124,0.579445 -0.577784,0.579445 -0.321356,0 -0.579484,-0.258091 -0.579484,-0.579445 0,-0.32136 0.258128,-0.579471 0.579484,-0.579471 z m 19.682042,0 c 0.32138,0 0.579511,0.258115 0.579511,0.579471 0,0.321358 -0.258131,0.579445 -0.579511,0.579445 -0.319634,0 -0.577756,-0.258091 -0.577756,-0.579445 0,-0.32136 0.258122,-0.579471 0.577756,-0.579471 z M 17,40.789772 c 0.321373,0 0.579485,0.258073 0.579485,0.577753 0,0.321334 -0.258112,0.579494 -0.579485,0.579494 -0.321373,0 -0.57948,-0.258165 -0.57948,-0.579494 0,-0.31968 0.258107,-0.577753 0.57948,-0.577753 z m -6.958976,0.589754 c 0.14872,0 0.295742,0.05636 0.40855,0.170868 0.227357,0.225651 0.227357,0.591511 0,0.818861 -0.225639,0.225599 -0.591438,0.225599 -0.818816,0 -0.225606,-0.22735 -0.225606,-0.593205 0,-0.818861 0.114532,-0.114526 0.261555,-0.170868 0.410266,-0.170868 z m 13.917937,0 c 0.148755,0 0.295755,0.05636 0.410276,0.170868 0.22561,0.225651 0.22561,0.591511 0,0.818861 -0.227364,0.225599 -0.593171,0.225599 -0.818816,0 -0.227344,-0.22735 -0.227344,-0.593205 0,-0.818861 0.11286,-0.114526 0.259859,-0.170868 0.40854,-0.170868 z M 17,44.263241 c 0.321373,0 0.579485,0.258258 0.579485,0.577782 0,0.321376 -0.258112,0.579515 -0.579485,0.579515 -0.321373,0 -0.57948,-0.258139 -0.57948,-0.579515 0,-0.319524 0.258107,-0.577782 0.57948,-0.577782 z m 0,0"
       id="path3-3"
       style="fill:#e5e5e5;fill-opacity:1;stroke-width:1.1" />
    <path
       d="m 16.760173,31.261714 c 2.049543,0 3.712838,1.663244 3.712838,3.712804 0,2.049632 -1.663295,3.712893 -3.712838,3.712893 -2.049541,0 -3.712848,-1.663261 -3.712848,-3.712893 0,-2.04956 1.663307,-3.712804 3.712848,-3.712804 z m 0,0"
       id="path2-6"
       style="fill:#e5e5e5;fill-opacity:1;stroke-width:1.1" />
  </g>
</svg>
