<?xml version="1.0" encoding="UTF-8" standalone="no"?>
<svg
   viewBox="0 0 24 24"
   width="24"
   height="24"
   version="1.1"
   id="svg1"
   sodipodi:docname="folder-build.svg"
   inkscape:version="1.3 (0e150ed6c4, 2023-07-21)"
   xmlns:inkscape="http://www.inkscape.org/namespaces/inkscape"
   xmlns:sodipodi="http://sodipodi.sourceforge.net/DTD/sodipodi-0.dtd"
   xmlns="http://www.w3.org/2000/svg"
   xmlns:svg="http://www.w3.org/2000/svg">
  <sodipodi:namedview
     id="namedview1"
     pagecolor="#ffffff"
     bordercolor="#000000"
     borderopacity="0.25"
     inkscape:showpageshadow="2"
     inkscape:pageopacity="0.0"
     inkscape:pagecheckerboard="0"
     inkscape:deskcolor="#d1d1d1"
     inkscape:zoom="31.958333"
     inkscape:cx="11.984355"
     inkscape:cy="12"
     inkscape:window-width="1920"
     inkscape:window-height="994"
     inkscape:window-x="0"
     inkscape:window-y="0"
     inkscape:window-maximized="1"
     inkscape:current-layer="svg1" />
  <defs
     id="defs3051">
    <style
       type="text/css"
       id="current-color-scheme">&#10;      .ColorScheme-Text {&#10;        color:#232629&#10;      }&#10;      </style>
  </defs>
  <g
     transform="translate(1,1.0009993)"
     id="g1">
    <path
       style="fill:currentColor"
       d="m 6.9707031,2.9980469 c -0.12888,0 -0.2327962,0.093158 -0.2539062,0.2109375 L 6.5253906,4.5332031 C 6.2120906,4.6609731 5.92178,4.8253906 5.65625,5.0253906 L 4.375,4.5234375 C 4.25945,4.4812375 4.12695,4.5230994 4.0625,4.6308594 L 3.0351562,6.3632812 c -0.0645,0.10777 -0.036153,0.2425525 0.060547,0.3203126 l 1.0839844,0.828125 C 4.1585875,7.6716988 4.1445312,7.83446 4.1445312,8 c 0,0.16444 0.015156,0.3263481 0.035156,0.4863281 l -1.0839844,0.828125 c -0.0978,0.0745 -0.1249867,0.2103125 -0.060547,0.3203125 L 4.0625,11.367188 c 0.0645,0.107768 0.19695,0.151851 0.3125,0.107421 l 1.28125,-0.501953 c 0.26442,0.19777 0.5558406,0.364418 0.8691406,0.492188 l 0.1914063,1.324218 C 6.7378969,12.906833 6.8418231,13 6.9707031,13 H 9.0273438 C 9.1562236,13 9.26014,12.906843 9.28125,12.789062 l 0.1914062,-1.324218 c 0.3133201,-0.12777 0.6036008,-0.292188 0.8691408,-0.492188 l 1.279297,0.501953 c 0.11554,0.0422 0.250023,3.47e-4 0.314453,-0.107421 l 1.027344,-1.7324224 c 0.0645,-0.10777 0.03625,-0.2425425 -0.06055,-0.3203125 L 11.818359,8.4863281 C 11.839459,8.3263481 11.853516,8.16554 11.853516,8 c 0,-0.16554 -0.01516,-0.3283012 -0.03516,-0.4882812 l 1.085938,-0.828125 c 0.0978,-0.0745 0.124997,-0.2103125 0.06055,-0.3203126 L 11.9375,4.6308594 C 11.873,4.5230994 11.74055,4.4789975 11.625,4.5234375 L 10.34375,5.0253906 C 10.07933,4.8276206 9.7879094,4.6609731 9.4746094,4.5332031 L 9.2832031,3.2089844 C 9.2599031,3.0912144 9.1551137,2.9980469 9.0273438,2.9980469 Z M 8,6 A 2,2 0 0 1 10,8 2,2 0 0 1 8,10 2,2 0 0 1 6,8 2,2 0 0 1 8,6 Z m 6.134766,5.005859 c -0.096,-0.024 -0.189983,0.02755 -0.226563,0.113282 l -0.382812,0.972656 c -0.25607,0.0389 -0.503118,0.112004 -0.736329,0.214844 L 11.927734,11.6875 c -0.0788,-0.0537 -0.186456,-0.04626 -0.253906,0.02344 l -1.076172,1.128906 c -0.0674,0.0697 -0.07122,0.179299 -0.01172,0.255859 l 0.658203,0.830078 c -0.0446,0.11769 -0.08552,0.237592 -0.115235,0.363281 -0.0297,0.125702 -0.04795,0.252067 -0.06055,0.378907 l -0.957031,0.429687 c -0.0868,0.0389 -0.130955,0.136432 -0.103516,0.232422 l 0.453126,1.50586 c 0.0297,0.0937 0.11915,0.153195 0.21289,0.140624 l 1.044922,-0.146484 c 0.16118,0.19883 0.346301,0.380896 0.556641,0.535156 l -0.09375,1.042969 c -0.006,0.0926 0.05629,0.183031 0.152343,0.207031 l 1.529297,0.378907 c 0.096,0.024 0.191936,-0.02875 0.228516,-0.113282 l 0.382812,-0.972656 c 0.25607,-0.0388 0.501165,-0.112004 0.734375,-0.214844 l 0.863282,0.619141 c 0.0788,0.0537 0.184503,0.04431 0.251953,-0.02539 l 1.078125,-1.128906 c 0.0674,-0.0708 0.07112,-0.177346 0.01172,-0.253906 l -0.660156,-0.832031 c 0.0446,-0.11769 0.08552,-0.239545 0.115235,-0.365235 0.0297,-0.1257 0.04795,-0.252403 0.06055,-0.376953 l 0.958984,-0.429687 c 0.0868,-0.0389 0.130956,-0.134479 0.103516,-0.230469 l -0.453126,-1.507813 c -0.0286,-0.0926 -0.11915,-0.151242 -0.21289,-0.138671 l -1.044922,0.144531 c -0.16119,-0.19883 -0.346291,-0.377793 -0.556641,-0.533203 l 0.09375,-1.044922 c 0.005,-0.0937 -0.05626,-0.182218 -0.152343,-0.205078 z M 14,13 a 2,2 0 0 1 2,2 2,2 0 0 1 -2,2 2,2 0 0 1 -2,-2 2,2 0 0 1 2,-2 z"
       class="ColorScheme-Text"
       id="path1" />
  </g>
</svg>
