<?xml version="1.0" encoding="UTF-8" standalone="no"?>
<svg
   viewBox="0 0 32 32"
   version="1.1"
   id="svg12"
   sodipodi:docname="folder-docker.svg"
   inkscape:version="1.2.2 (b0a8486541, 2022-12-01)"
   xmlns:inkscape="http://www.inkscape.org/namespaces/inkscape"
   xmlns:sodipodi="http://sodipodi.sourceforge.net/DTD/sodipodi-0.dtd"
   xmlns:xlink="http://www.w3.org/1999/xlink"
   xmlns="http://www.w3.org/2000/svg"
   xmlns:svg="http://www.w3.org/2000/svg"
   xmlns:rdf="http://www.w3.org/1999/02/22-rdf-syntax-ns#"
   xmlns:cc="http://creativecommons.org/ns#"
   xmlns:dc="http://purl.org/dc/elements/1.1/">
  <metadata
     id="metadata16">
    <rdf:RDF>
      <cc:Work
         rdf:about="">
        <dc:format>image/svg+xml</dc:format>
        <dc:type
           rdf:resource="http://purl.org/dc/dcmitype/StillImage" />
      </cc:Work>
    </rdf:RDF>
  </metadata>
  <sodipodi:namedview
     pagecolor="#ffffff"
     bordercolor="#666666"
     borderopacity="1"
     objecttolerance="10"
     gridtolerance="10"
     guidetolerance="10"
     inkscape:pageopacity="0"
     inkscape:pageshadow="2"
     inkscape:window-width="1920"
     inkscape:window-height="994"
     id="namedview14"
     showgrid="false"
     inkscape:zoom="7.375"
     inkscape:cx="7.7966102"
     inkscape:cy="16.067797"
     inkscape:window-x="0"
     inkscape:window-y="0"
     inkscape:window-maximized="1"
     inkscape:current-layer="svg12"
     inkscape:showpageshadow="2"
     inkscape:pagecheckerboard="0"
     inkscape:deskcolor="#d1d1d1" />
  <defs
     id="defs3051">
    <linearGradient
       inkscape:collect="always"
       id="linearGradient4538">
      <stop
         style="stop-color:#00a489;stop-opacity:1"
         offset="0"
         id="stop4534" />
      <stop
         style="stop-color:#006453;stop-opacity:1"
         offset="1"
         id="stop4536" />
    </linearGradient>
    <linearGradient
       inkscape:collect="always"
       id="linearGradient4530">
      <stop
         style="stop-color:#004c5a;stop-opacity:1"
         offset="0"
         id="stop4526" />
      <stop
         style="stop-color:#00a5be;stop-opacity:1"
         offset="1"
         id="stop4528" />
    </linearGradient>
    <style
       type="text/css"
       id="current-color-scheme">
      .ColorScheme-Text {
        color:#31363b;
      }
      .ColorScheme-Background {
        color:#eff0f1;
      }
      .ColorScheme-Highlight {
        color:#3daee9;
      }
      .ColorScheme-ViewText {
        color:#31363b;
      }
      .ColorScheme-ViewBackground {
        color:#fcfcfc;
      }
      .ColorScheme-ViewHover {
        color:#93cee9;
      }
      .ColorScheme-ViewFocus{
        color:#3daee9;
      }
      .ColorScheme-ButtonText {
        color:#31363b;
      }
      .ColorScheme-ButtonBackground {
        color:#eff0f1;
      }
      .ColorScheme-ButtonHover {
        color:#93cee9;
      }
      .ColorScheme-ButtonFocus{
        color:#3daee9;
      }
      </style>
    <linearGradient
       inkscape:collect="always"
       xlink:href="#linearGradient4530"
       id="linearGradient4532"
       x1="12"
       y1="11"
       x2="23.813559"
       y2="34.711864"
       gradientUnits="userSpaceOnUse" />
    <linearGradient
       inkscape:collect="always"
       xlink:href="#linearGradient4538"
       id="linearGradient4540"
       x1="2"
       y1="6.5"
       x2="30"
       y2="6.5"
       gradientUnits="userSpaceOnUse" />
  </defs>
  <path
     style="fill:url(#linearGradient4532);fill-opacity:1;stroke:none"
     d="M 2 3 L 2 10 L 1 10 L 1 29 L 12 29 L 13 29 L 31 29 L 31 8 L 30 8 L 30 5 L 16 5 L 14 3 L 2 3 z "
     class="ColorScheme-Highlight"
     id="path4" />
  <path
     style="fill-opacity:1;fill-rule:evenodd;fill:url(#linearGradient4540)"
     d="m 2,3 0,7 9,0 L 13,8 30,8 30,5 16,5 14,3 2,3 Z"
     id="path6" />
  <path
     style="fill:#ffffff;fill-opacity:0.2;fill-rule:evenodd"
     d="M 14 3 L 15 6 L 30 6 L 30 5 L 16 5 L 14 3 z M 13 8 L 11 10 L 1 10 L 1 11 L 12 11 L 13 8 z "
     id="path8" />
  <path
     style="fill-opacity:0.2;fill-rule:evenodd"
     d="M 13 8 L 11 9 L 2 9 L 2 10 L 11 10 L 13 8 z M 1 28 L 1 29 L 31 29 L 31 28 L 1 28 z "
     class="ColorScheme-Text"
     id="path10" />
  <path
     style="color:#31363b;fill:#e5e5e5;fill-opacity:1;stroke:none"
     d="m 15,14 v 1 h 1 v -1 z m 2,0 v 1 h 1 v -1 z m 3.269531,1.271484 c -0.523936,0.359082 -0.764906,1.009234 -0.601562,1.623047 C 19.833126,17.507888 20.366712,17.950717 21,18 c 0.211634,0.598592 0.777207,0.999109 1.412109,1 0.634902,-8.91e-4 1.200476,-0.401408 1.41211,-1 -0.211634,-0.598592 -0.777208,-0.999109 -1.41211,-1 -0.30289,9.28e-4 -0.598403,0.09353 -0.847656,0.265625 0.101286,-0.285859 0.113531,-0.595705 0.03516,-0.888672 C 21.434682,15.76423 20.90208,15.321559 20.269531,15.271484 Z M 21,18 H 9 c 0,3.313709 2.686291,5 6,5 3.313709,0 6,-1.686291 6,-5 z m -9,-2 v 1 h 1 v -1 z m 2,0 v 1 h 1 v -1 z m 2,0 v 1 h 1 v -1 z m 2,0 v 1 h 1 v -1 z m -6.5,3 C 11.776142,19 12,19.223858 12,19.5 12,19.776142 11.776142,20 11.5,20 11.223858,20 11,19.776142 11,19.5 11,19.223858 11.223858,19 11.5,19 Z"
     class="ColorScheme-Text"
     id="path12" />
</svg>
